<svg width="62" height="35" viewBox="0 0 62 35" fill="none" xmlns="http://www.w3.org/2000/svg">
<mask id="path-1-inside-1_340_1375" fill="white">
<path d="M0 0H62V35H0V0Z"/>
</mask>
<path d="M0 0H62V35H0V0Z" fill="white"/>
<path d="M0 0V1H62V0V-1H0V0ZM62 35V34H0V35V36H62V35Z" fill="#CE2B37" mask="url(#path-1-inside-1_340_1375)"/>
<circle cx="2.5" cy="17.5" r="1.5" fill="#CE2B37"/>
<path d="M17.398 17.448C18.142 17.58 18.742 17.844 19.198 18.24C19.666 18.636 19.9 19.236 19.9 20.04C19.9 21.24 19.48 22.2 18.64 22.92C17.812 23.64 16.444 24 14.536 24H11.116L12.862 11.598H16.282C17.458 11.598 18.4 11.832 19.108 12.3C19.816 12.756 20.17 13.446 20.17 14.37C20.17 15.198 19.906 15.876 19.378 16.404C18.85 16.932 18.19 17.28 17.398 17.448ZM14.356 12.948L13.816 16.854H15.634C16.438 16.854 17.104 16.65 17.632 16.242C18.172 15.834 18.442 15.228 18.442 14.424C18.442 13.872 18.25 13.488 17.866 13.272C17.494 13.056 16.984 12.948 16.336 12.948H14.356ZM14.608 22.632C15.916 22.632 16.828 22.404 17.344 21.948C17.872 21.48 18.136 20.832 18.136 20.004C18.136 18.78 17.32 18.168 15.688 18.168H13.636L13.006 22.632H14.608ZM30.6921 11.598L30.3141 12.966H25.5441L24.9681 17.016H29.1081L28.9281 18.384H24.7881L24.1941 22.632H29.2881L29.0901 24H22.3041L24.0501 11.598H30.6921ZM40.5795 11.598L40.2015 12.966H35.4315L34.8555 17.016H38.9955L38.8155 18.384H34.6755L34.0815 22.632H39.1755L38.9775 24H32.1915L33.9375 11.598H40.5795ZM51.2588 14.676C51.2588 15.516 51.0068 16.284 50.5028 16.98C50.0108 17.676 49.2188 18.18 48.1268 18.492L50.6288 24H48.7568L46.4708 18.744H44.5088L43.7708 24H42.0788L43.8248 11.598H47.0108C49.8428 11.598 51.2588 12.624 51.2588 14.676ZM44.6888 17.43H46.5068C47.5628 17.43 48.3188 17.16 48.7748 16.62C49.2428 16.08 49.4768 15.438 49.4768 14.694C49.4768 14.058 49.2728 13.608 48.8648 13.344C48.4568 13.068 47.8088 12.93 46.9208 12.93H45.3188L44.6888 17.43Z" fill="#333333"/>
<circle cx="59.5" cy="17.5" r="1.5" fill="#CE2B37"/>
</svg>
