<svg width="87" height="30" viewBox="0 0 87 30" fill="none" xmlns="http://www.w3.org/2000/svg">
<mask id="path-1-inside-1_340_1493" fill="white">
<path d="M0.75 0H86.75V30H0.75V0Z"/>
</mask>
<path d="M0.75 0H86.75V30H0.75V0Z" fill="white"/>
<path d="M0.75 0V1H86.75V0V-1H0.75V0ZM86.75 30V29H0.75V30V31H86.75V30Z" fill="#009246" mask="url(#path-1-inside-1_340_1493)"/>
<path d="M18.236 10.382C19.604 10.382 20.684 10.82 21.476 11.696C22.268 12.572 22.664 13.814 22.664 15.422C22.664 16.634 22.454 17.84 22.034 19.04C21.626 20.228 20.966 21.224 20.054 22.028C19.142 22.82 17.972 23.216 16.544 23.216C15.176 23.216 14.09 22.784 13.286 21.92C12.494 21.056 12.098 19.826 12.098 18.23C12.098 17.042 12.302 15.848 12.71 14.648C13.13 13.448 13.796 12.44 14.708 11.624C15.632 10.796 16.808 10.382 18.236 10.382ZM18.164 11.786C17.12 11.786 16.274 12.128 15.626 12.812C14.99 13.496 14.534 14.336 14.258 15.332C13.994 16.316 13.862 17.3 13.862 18.284C13.862 20.636 14.774 21.812 16.598 21.812C17.654 21.812 18.5 21.47 19.136 20.786C19.784 20.09 20.24 19.25 20.504 18.266C20.768 17.27 20.9 16.28 20.9 15.296C20.9 12.956 19.988 11.786 18.164 11.786ZM33.183 10.598L32.787 12.056H29.367L27.837 23H26.145L27.675 12.056H24.183L24.399 10.598H33.183ZM35.4284 23H33.7364L35.4824 10.598H37.1744L36.4364 15.782H41.6204L42.3584 10.598H44.0504L42.3044 23H40.6124L41.4224 17.186H36.2384L35.4284 23ZM54.6133 10.598L54.2353 11.966H49.4653L48.8893 16.016H53.0293L52.8493 17.384H48.7093L48.1153 21.632H53.2093L53.0113 23H46.2253L47.9713 10.598H54.6133ZM65.2926 13.676C65.2926 14.516 65.0406 15.284 64.5366 15.98C64.0446 16.676 63.2526 17.18 62.1606 17.492L64.6626 23H62.7906L60.5046 17.744H58.5426L57.8046 23H56.1126L57.8586 10.598H61.0446C63.8766 10.598 65.2926 11.624 65.2926 13.676ZM58.7226 16.43H60.5406C61.5966 16.43 62.3526 16.16 62.8086 15.62C63.2766 15.08 63.5106 14.438 63.5106 13.694C63.5106 13.058 63.3066 12.608 62.8986 12.344C62.4906 12.068 61.8426 11.93 60.9546 11.93H59.3526L58.7226 16.43ZM71.841 10.382C72.621 10.382 73.305 10.508 73.893 10.76C74.481 11.012 75.015 11.384 75.495 11.876L74.433 12.866C74.049 12.482 73.647 12.206 73.227 12.038C72.819 11.87 72.357 11.786 71.841 11.786C71.109 11.786 70.503 11.966 70.023 12.326C69.543 12.686 69.303 13.178 69.303 13.802C69.303 14.282 69.465 14.666 69.789 14.954C70.113 15.242 70.725 15.536 71.625 15.836C72.657 16.16 73.455 16.568 74.019 17.06C74.583 17.552 74.865 18.278 74.865 19.238C74.865 19.91 74.685 20.552 74.325 21.164C73.977 21.764 73.437 22.256 72.705 22.64C71.985 23.024 71.085 23.216 70.005 23.216C68.301 23.216 66.963 22.664 65.991 21.56L67.071 20.552C67.455 20.972 67.887 21.29 68.367 21.506C68.847 21.71 69.405 21.812 70.041 21.812C70.965 21.812 71.703 21.59 72.255 21.146C72.819 20.69 73.101 20.084 73.101 19.328C73.101 18.8 72.933 18.386 72.597 18.086C72.273 17.774 71.679 17.468 70.815 17.168C69.687 16.772 68.865 16.34 68.349 15.872C67.833 15.392 67.575 14.732 67.575 13.892C67.575 13.328 67.743 12.776 68.079 12.236C68.415 11.696 68.901 11.252 69.537 10.904C70.185 10.556 70.953 10.382 71.841 10.382Z" fill="#333333"/>
<circle cx="84.5" cy="14.5" r="1.5" fill="#009246"/>
<circle cx="4.5" cy="14.5" r="1.5" fill="#009246"/>
</svg>
