<svg width="88" height="32" viewBox="0 0 88 32" fill="none" xmlns="http://www.w3.org/2000/svg">
<mask id="path-1-inside-1_340_1449" fill="white">
<path d="M0 0H88V32H0V0Z"/>
</mask>
<path d="M0 0H88V32H0V0Z" fill="white"/>
<path d="M0 0V1H88V0V-1H0V0ZM88 32V31H0V32V33H88V32Z" fill="#C4C4C4" mask="url(#path-1-inside-1_340_1449)"/>
<path d="M11.554 10.598L10.024 21.506H15.064L14.668 23H8.116L9.862 10.598H11.554ZM20.7734 10.598L19.0274 23H17.3354L19.0814 10.598H20.7734ZM33.4992 15.422C33.4992 16.334 33.3792 17.252 33.1392 18.176C32.8992 19.088 32.5152 19.922 31.9872 20.678C31.4592 21.422 30.7872 21.974 29.9712 22.334C30.5832 22.346 31.1292 22.454 31.6092 22.658C32.1012 22.862 32.5752 23.132 33.0312 23.468L31.7712 24.854C31.3632 24.422 30.9612 24.086 30.5652 23.846C30.1812 23.618 29.7432 23.456 29.2512 23.36C28.7592 23.264 28.1352 23.216 27.3792 23.216C26.0112 23.216 24.9252 22.784 24.1212 21.92C23.3292 21.056 22.9332 19.826 22.9332 18.23C22.9332 17.042 23.1372 15.848 23.5452 14.648C23.9652 13.448 24.6312 12.44 25.5432 11.624C26.4672 10.796 27.6432 10.382 29.0712 10.382C30.4392 10.382 31.5192 10.82 32.3112 11.696C33.1032 12.572 33.4992 13.814 33.4992 15.422ZM24.6972 18.41C24.6972 19.586 24.9372 20.45 25.4172 21.002C25.8972 21.542 26.5692 21.812 27.4332 21.812C28.4892 21.812 29.3352 21.464 29.9712 20.768C30.6192 20.072 31.0752 19.22 31.3392 18.212C31.6032 17.192 31.7352 16.16 31.7352 15.116C31.7352 13.988 31.5012 13.154 31.0332 12.614C30.5652 12.062 29.8872 11.786 28.9992 11.786C27.9552 11.786 27.1092 12.134 26.4612 12.83C25.8252 13.514 25.3692 14.36 25.0932 15.368C24.8292 16.376 24.6972 17.39 24.6972 18.41ZM44.5803 19.076C44.4003 20.336 43.8843 21.344 43.0323 22.1C42.1803 22.844 41.0823 23.216 39.7383 23.216C38.5143 23.216 37.5723 22.904 36.9123 22.28C36.2523 21.644 35.9223 20.792 35.9223 19.724C35.9223 19.472 35.9403 19.22 35.9763 18.968L37.1643 10.598H38.8563L37.6863 18.95C37.6503 19.214 37.6323 19.466 37.6323 19.706C37.6323 20.402 37.8063 20.924 38.1543 21.272C38.5143 21.608 39.0663 21.776 39.8103 21.776C41.5983 21.776 42.6303 20.798 42.9063 18.842L44.0763 10.598H45.7683L44.5803 19.076ZM56.1588 10.598L55.7808 11.966H51.0108L50.4348 16.016H54.5748L54.3948 17.384H50.2548L49.6608 21.632H54.7548L54.5568 23H47.7708L49.5168 10.598H56.1588ZM66.6402 19.076C66.4602 20.336 65.9442 21.344 65.0922 22.1C64.2402 22.844 63.1422 23.216 61.7982 23.216C60.5742 23.216 59.6322 22.904 58.9722 22.28C58.3122 21.644 57.9822 20.792 57.9822 19.724C57.9822 19.472 58.0002 19.22 58.0362 18.968L59.2242 10.598H60.9162L59.7462 18.95C59.7102 19.214 59.6922 19.466 59.6922 19.706C59.6922 20.402 59.8662 20.924 60.2142 21.272C60.5742 21.608 61.1262 21.776 61.8702 21.776C63.6582 21.776 64.6902 20.798 64.9662 18.842L66.1362 10.598H67.8282L66.6402 19.076ZM79.0107 13.676C79.0107 14.516 78.7587 15.284 78.2547 15.98C77.7627 16.676 76.9707 17.18 75.8787 17.492L78.3807 23H76.5087L74.2227 17.744H72.2607L71.5227 23H69.8307L71.5767 10.598H74.7627C77.5947 10.598 79.0107 11.624 79.0107 13.676ZM72.4407 16.43H74.2587C75.3147 16.43 76.0707 16.16 76.5267 15.62C76.9947 15.08 77.2287 14.438 77.2287 13.694C77.2287 13.058 77.0247 12.608 76.6167 12.344C76.2087 12.068 75.5607 11.93 74.6727 11.93H73.0707L72.4407 16.43Z" fill="#333333"/>
<circle cx="84.5" cy="16.5" r="1.5" fill="#C4C4C4"/>
<circle cx="2.5" cy="16.5" r="1.5" fill="#C4C4C4"/>
</svg>
