<svg width="59" height="32" viewBox="0 0 59 32" fill="none" xmlns="http://www.w3.org/2000/svg">
<mask id="path-1-inside-1_340_1416" fill="white">
<path d="M0 0H59V32H0V0Z"/>
</mask>
<path d="M0 0H59V32H0V0Z" fill="white"/>
<path d="M0 0V1H59V0V-1H0V0ZM59 32V31H0V32V33H59V32Z" fill="#009246" mask="url(#path-1-inside-1_340_1416)"/>
<circle cx="3.5" cy="16.5" r="1.5" fill="#009246"/>
<path d="M23.39 10.098L19.142 22.5H16.964L16.172 12.114L12.428 22.5H10.304L9.548 10.098H11.168L11.6 21.006L15.506 10.098H17.342L18.224 21.006L21.824 10.098H23.39ZM27.6796 10.098L25.9336 22.5H24.2416L25.9876 10.098H27.6796ZM40.2255 10.098L38.4795 22.5H36.2655L32.7195 11.574C32.7015 13.086 32.5755 14.562 32.2515 16.866L31.4595 22.5H29.8575L31.6035 10.098H33.8355L37.3995 21.042C37.3995 19.404 37.4715 18.324 37.6695 16.812L38.6235 10.098H40.2255ZM50.7871 10.098L50.4091 11.466H45.6391L45.0631 15.516H49.2031L49.0231 16.884H44.8831L44.2891 21.132H49.3831L49.1851 22.5H42.3991L44.1451 10.098H50.7871Z" fill="black"/>
<circle cx="55.5" cy="16.5" r="1.5" fill="#009246"/>
</svg>
