<svg width="112" height="91" viewBox="0 0 112 91" fill="none" xmlns="http://www.w3.org/2000/svg">
<g clip-path="url(#clip0_565_2305)">
<path d="M93.649 56.441C92.6979 57.0904 91.5396 57.4186 90.426 57.6676C89.2368 57.9376 88.0288 58.0865 86.832 58.3289C85.6783 58.5668 84.5436 58.8736 83.5136 59.478C82.974 59.7982 82.4935 60.1985 82.0664 60.6582C81.5871 61.1695 81.0057 61.8724 80.2054 61.6783C79.5009 61.5097 79.4311 60.5641 78.7388 60.3327C78.1529 60.1387 77.5331 60.4365 77.058 60.7759C76.3842 61.252 75.8343 61.909 75.3044 62.5309C74.7595 63.1791 74.2429 63.8492 73.7545 64.5411C72.7678 65.9427 71.8551 67.3979 70.8402 68.7776C69.8637 70.1094 68.7805 71.456 67.4455 72.427C66.9112 72.8199 66.076 73.1403 65.5269 72.5723C65.0206 72.0519 65.6013 71.3195 65.9059 70.8715C66.893 69.4179 68.1975 68.203 69.2021 66.7594C69.9951 65.6194 71.1072 63.7897 70.0613 62.4686C69.1444 61.3196 67.5988 61.3171 66.3254 61.7366C65.5592 61.9859 64.8254 62.3524 64.0871 62.6757C63.2446 63.05 62.4041 63.4312 61.5616 63.8056C59.8787 64.5612 58.185 65.3048 56.5146 66.0792C55.7221 66.4471 54.9403 66.8269 54.2241 67.337C53.5385 67.8238 52.9139 68.3976 52.1691 68.8043C50.7935 69.549 49.1649 69.6734 47.6648 70.022C44.6598 70.728 41.8094 71.9925 39.1373 73.5267C36.4209 75.0881 33.872 76.9074 31.3822 78.8068C30.7771 79.2639 30.1826 79.7329 29.5793 80.1969C29.4454 80.3007 29.3135 80.5451 29.3544 80.7194C29.406 80.9055 29.5787 80.8354 29.687 80.746C32.1737 78.8623 34.7169 77.0223 37.3547 75.3639C39.962 73.7289 42.7253 72.3104 45.6731 71.3975C46.4019 71.1734 47.1384 70.9769 47.8863 70.8217C48.646 70.6559 49.4123 70.5402 50.1713 70.3448C50.939 70.1545 51.6995 69.8845 52.3749 69.4673C53.1013 69.0212 53.7221 68.4336 54.4341 67.9618C55.1529 67.4881 55.9248 67.1258 56.7074 66.7755C57.5636 66.3974 58.411 66.0142 59.2672 65.6361C60.9639 64.8767 62.6606 64.1173 64.3642 63.356C65.625 62.7842 67.1764 61.9537 68.5718 62.5619C69.1349 62.8068 69.6603 63.2626 69.7821 63.8895C69.9227 64.6373 69.3974 65.436 69.0154 66.0317C68.0703 67.5034 66.76 68.6976 65.7302 70.1036C65.2746 70.7271 64.75 71.4217 64.6114 72.2024C64.48 72.9291 64.7926 73.5773 65.5243 73.7904C66.294 74.0077 67.0282 73.5892 67.6196 73.1359C68.2839 72.6253 68.8871 72.0277 69.4553 71.4102C70.6201 70.1449 71.6011 68.7227 72.5596 67.2993C73.4963 65.9042 74.4117 64.4853 75.4789 63.1877C75.9597 62.6018 76.4675 61.9267 77.1116 61.5034C77.6062 61.1808 78.2592 61.0297 78.6724 61.561C78.8994 61.847 79.0331 62.196 79.3398 62.4228C79.6007 62.6178 79.9547 62.6682 80.2682 62.6259C81.0932 62.5088 81.6457 61.8881 82.1784 61.3027C82.9833 60.4191 83.9973 59.8636 85.1217 59.4929C86.2921 59.1019 87.5073 58.899 88.7091 58.6479C89.8952 58.3936 91.1401 58.1379 92.2171 57.5427C92.7231 57.2616 93.2059 56.9497 93.649 56.5746C93.6845 56.5425 93.7405 56.3711 93.654 56.4322L93.649 56.441Z" fill="#5E4345"/>
<path d="M92.6972 64.8549C92.4279 64.7365 92.143 64.7486 91.8524 64.74C91.5098 64.7309 91.1662 64.7444 90.8263 64.7717C90.1947 64.8131 89.5677 64.8976 88.9414 65.0117C87.6595 65.2405 86.3906 65.5697 85.1267 65.89C82.2654 66.6082 79.3718 67.2091 76.4594 67.6891C75.6676 67.8193 74.8788 67.9338 74.0901 68.0483C73.6785 68.1103 73.2651 68.1654 72.8516 68.2205C72.4382 68.2757 72.0152 68.2963 71.6121 68.4154C71.4198 68.4686 71.2753 68.6942 71.2212 68.8725C71.1812 68.9949 71.1413 69.2509 71.3301 69.2654C71.6764 69.2883 72.0185 69.2158 72.3595 69.1659C72.7436 69.1115 73.1208 69.059 73.5049 69.0046C74.2143 68.8972 74.9218 68.7829 75.6274 68.6617C77.0679 68.4187 78.5058 68.1392 79.9361 67.8322C81.3526 67.529 82.7634 67.2051 84.1646 66.8467C85.4766 66.5131 86.7753 66.1312 88.0949 65.8251C88.8302 65.6512 89.5694 65.491 90.3131 65.3741C90.6953 65.3128 91.0813 65.2653 91.4692 65.2247C91.8502 65.1859 92.227 65.1855 92.5978 65.0828C92.6458 65.0695 92.7842 64.8753 92.7072 64.8373L92.6972 64.8549Z" fill="#5E4345"/>
<path d="M53.533 17.7067C53.8698 16.307 54.3892 14.9533 55.2051 13.7624C56.0012 12.6066 57.0574 11.6164 58.2732 10.9085C60.7204 9.49596 63.7583 9.25588 66.4728 9.92933C69.704 10.7343 72.277 12.8721 74.5194 15.2573C76.8774 17.7664 79.0088 20.4718 81.2112 23.1131C83.3709 25.7068 85.5934 28.2608 88.0753 30.55C90.4969 32.7817 93.2139 34.6124 95.9032 36.5027C98.5203 38.3462 101.139 40.3007 103.129 42.8447C104.957 45.1741 106.326 48.0905 106.041 51.1164C105.773 53.9372 104.384 56.6376 102.497 58.7116C100.632 60.7572 98.2522 62.307 95.6172 63.148C94.9658 63.3581 94.2961 63.5288 93.6306 63.6611C93.3846 63.707 93.2126 63.9402 93.1181 64.1593C93.0822 64.2435 92.9489 64.6961 93.1899 64.659C99.0289 63.7769 104.045 59.2553 106.052 53.7708C106.628 52.1936 106.967 50.5111 106.826 48.828C106.702 47.3111 106.219 45.8341 105.529 44.4888C104.039 41.5908 101.627 39.2895 99.0815 37.3298C96.3944 35.2607 93.4939 33.4882 90.8435 31.3644C88.0607 29.1363 85.6154 26.5252 83.3009 23.8259C80.9951 21.1317 78.7976 18.348 76.4495 15.6877C74.1548 13.0869 71.629 10.5055 68.2878 9.33018C65.5363 8.36267 62.4288 8.32509 59.7164 9.44739C56.9324 10.6044 54.7503 13.0273 53.7213 15.8508C53.4877 16.5019 53.3509 17.1559 53.3138 17.8491C53.3054 18.0592 53.5266 17.7901 53.5437 17.7186L53.533 17.7067Z" fill="#5E4345"/>
<path d="M53.9514 17.3756C49.0121 21.5864 44.6131 26.4938 40.6082 31.5964C36.5697 36.7379 32.9566 42.2145 29.8154 47.9537C26.6723 53.6861 24.013 59.6705 21.8407 65.8392C20.7432 68.9489 19.7765 72.1041 18.9524 75.294C18.1756 78.3075 17.4572 81.3717 17.2777 84.487C17.2322 85.2567 17.2248 86.0307 17.2517 86.7953C17.2829 87.5215 17.3029 88.2879 17.482 88.988C17.6306 89.5778 17.9714 90.1144 18.6278 90.1627C19.2011 90.2043 19.7594 89.8716 20.2147 89.5673C22.9486 87.7487 25.4436 85.5213 27.6124 83.0501C28.1462 82.4421 28.6518 81.8121 29.1486 81.1772C29.2454 81.0465 29.468 80.7028 29.3459 80.5287C29.2219 80.3478 28.9901 80.605 28.9131 80.7006C26.932 83.2088 24.6491 85.4815 22.1033 87.4187C21.4931 87.8846 20.8723 88.3386 20.2263 88.755C19.7622 89.0543 19.1139 89.3823 18.5939 88.9993C18.0457 88.5944 18.0461 87.6887 17.9868 87.0742C17.9176 86.3436 17.8914 85.6086 17.9015 84.871C17.933 81.7818 18.5946 78.7259 19.3359 75.7445C20.0963 72.6984 20.9749 69.679 21.9756 66.7C23.9851 60.7174 26.5003 54.9065 29.4524 49.3384C32.4143 43.7527 35.8268 38.4059 39.6433 33.3704C43.4598 28.3348 47.688 23.6381 52.2195 19.2359C52.7911 18.6842 53.3539 18.1275 53.9255 17.5758C53.9728 17.533 54.0658 17.2549 53.9407 17.3637L53.9514 17.3756Z" fill="#5E4345"/>
<path d="M65.0658 70.2134C63.5185 70.4712 61.9738 70.7653 60.4452 71.1441C58.896 71.5287 57.3727 71.9802 55.8521 72.4681C52.7903 73.4496 49.79 74.5997 46.8359 75.8632C43.8749 77.1286 40.9582 78.5005 38.0686 79.9168C35.1141 81.3659 32.1906 82.8733 29.267 84.3807C27.824 85.1218 26.3828 85.8698 24.9378 86.604C24.2059 86.9774 23.481 87.3489 22.7491 87.7223C22.3994 87.9008 22.0428 88.0812 21.6931 88.2597C21.3247 88.4508 20.964 88.6695 20.5937 88.8537C20.2184 89.0467 19.8527 89.2741 19.4919 89.4928C19.3779 89.5615 19.2799 89.7148 19.2643 89.8453C19.2529 89.9375 19.2842 90.0773 19.4128 90.0343C20.8937 89.4832 22.315 88.7704 23.7226 88.0614C25.1676 87.3272 26.6058 86.5949 28.0469 85.8469C30.9125 84.3704 33.7762 82.887 36.6581 81.4431C39.5657 79.9847 42.4984 78.5638 45.4754 77.2495C48.4131 75.9534 51.3913 74.7501 54.4271 73.7015C57.456 72.6549 60.5495 71.761 63.6644 71.0246C64.0664 70.9281 64.4634 70.8404 64.8673 70.7508C65.0271 70.714 65.2413 70.1796 65.0658 70.2134Z" fill="#5E4345"/>
<path d="M55.0305 17.5889C54.7885 18.3165 55.0622 19.0647 55.657 19.5309C56.319 20.0527 57.123 20.127 57.932 20.0588C58.8996 19.9764 59.8592 19.7849 60.8175 20.0688C61.7757 20.3527 62.6135 20.9224 63.3586 21.5845C64.1446 22.2872 64.8398 23.0894 65.5262 23.8865C66.2447 24.7193 66.9631 25.5521 67.7052 26.3635C69.1944 27.9775 70.8693 29.3545 72.8991 30.225C74.8851 31.0705 77.0109 31.6471 78.8597 32.7978C80.415 33.77 81.5308 35.1831 82.37 36.799C83.9142 39.7858 84.7532 43.3762 87.512 45.5442C89.0705 46.7678 91.3181 47.5706 91.9889 49.6191C92.3042 50.5709 92.0165 51.5339 91.7536 52.4529C91.5098 53.3072 91.2881 54.2148 91.4893 55.1018C91.5795 55.5073 91.7505 55.8311 92.0538 56.1257C92.2045 56.2695 92.5964 55.6563 92.48 55.5029C91.3009 53.9144 92.4916 52.0481 92.5799 50.3387C92.6853 48.2905 91.0021 46.99 89.4479 45.9953C88.5933 45.4451 87.7475 44.9 87.047 44.1587C86.464 43.5482 85.9824 42.8502 85.5519 42.1232C84.6841 40.6711 84.0532 39.0867 83.3082 37.5709C82.5922 36.1065 81.7656 34.643 80.5794 33.5092C79.0402 32.0352 76.9994 31.3386 75.0539 30.5858C74.0426 30.1904 73.0561 29.751 72.1234 29.1854C71.1975 28.6178 70.3841 27.9227 69.6241 27.1534C68.0845 25.5978 66.7803 23.8509 65.3521 22.1904C64.0773 20.71 62.5412 19.0867 60.4819 18.937C59.5378 18.8644 58.611 19.1211 57.6735 19.0986C57.2791 19.0891 56.9106 19.013 56.5566 18.829C56.2621 18.673 55.9279 18.4538 55.7459 18.1702C55.5783 17.9122 55.4836 17.597 55.5553 17.2951C55.5895 17.152 55.498 17.0883 55.3752 17.152C55.2181 17.2252 55.1079 17.4413 55.0618 17.5951L55.0305 17.5889Z" fill="#5E4345"/>
<path d="M61.1574 36.3493C61.2145 36.1553 61.2507 35.8855 61.3937 35.7346C61.5199 35.6031 61.7346 35.5511 61.9123 35.6058C62.0432 35.6512 62.1989 35.7862 62.2252 35.9348C62.2523 36.1129 61.9396 36.1846 61.7954 36.2246C60.9598 36.4634 60.0635 36.5632 59.1965 36.6622C58.4433 36.7447 57.6426 36.7363 56.952 37.0983C56.2614 37.4602 55.8481 38.1834 55.8564 38.9605C55.8627 39.7307 56.1116 40.5228 56.3159 41.2605C56.4247 41.6534 56.561 42.0388 56.7179 42.4184C56.8633 42.7567 57.0221 43.1433 57.3555 43.333C57.924 43.6506 58.7268 43.4802 59.3115 43.2961C59.9167 43.1062 60.4815 42.8236 61.0502 42.5548C61.6836 42.2531 62.3552 41.9558 63.0624 41.8936C63.2348 41.8755 63.4178 41.8694 63.5918 41.9103C63.6787 41.9307 63.7695 41.965 63.8436 42.0187C63.8718 42.0406 63.9 42.0624 63.9233 42.0931C63.9447 42.1169 63.9741 42.2498 63.9931 42.1851C64.0141 42.1273 63.9794 42.1889 63.9412 42.1846C63.8875 42.1773 63.8276 42.2013 63.7669 42.1958C63.6544 42.1898 63.5461 42.1456 63.4496 42.0907C63.2371 41.964 63.076 41.7562 62.9089 41.5798C62.7933 41.4559 62.459 41.9568 62.5559 42.0932C62.7913 42.4363 63.1206 42.7979 63.5669 42.8079C63.9525 42.8124 64.2564 42.4685 64.3841 42.1288C64.5148 41.7734 64.4105 41.4237 64.0405 41.2887C63.7106 41.1648 63.3452 41.2066 63.008 41.2703C61.5663 41.5359 60.3651 42.5366 58.912 42.7609C58.521 42.8172 58.0137 42.8538 57.6738 42.6139C57.3144 42.3571 57.1552 41.7555 57.017 41.3632C56.8616 40.9089 56.7337 40.447 56.6146 39.9901C56.4962 39.5627 56.3721 39.1146 56.3517 38.6674C56.3356 38.182 56.5083 37.8447 56.9464 37.612C57.3335 37.4083 57.7882 37.3418 58.2172 37.2897C59.2047 37.1721 60.1815 37.0427 61.1491 36.8267C61.5942 36.7257 62.0832 36.6496 62.3775 36.2712C62.6067 35.9776 62.7312 35.52 62.4024 35.24C61.7271 34.6699 60.7365 35.7904 60.9999 36.4746C61.0296 36.5554 61.1425 36.3757 61.1505 36.3512L61.1574 36.3493Z" fill="#5E4345"/>
<path d="M60.0284 36.5432C59.3827 35.5195 59.3151 34.1279 59.8259 33.0363C60.3893 31.8411 61.5844 31.0054 62.8193 30.6337C65.3354 29.8701 67.8304 31.5396 69.4089 33.3961C70.9641 35.2219 71.9188 37.6817 71.6484 40.0947C71.3871 42.4607 70.0001 44.6857 67.8141 45.7068C66.4717 46.3309 64.9578 46.2825 63.6729 45.5398C62.4319 44.822 61.5981 43.5461 61.3094 42.1563C61.2479 41.8542 60.7869 42.405 60.8323 42.6225C61.1089 43.9414 61.8344 45.1731 62.9476 45.9633C64.0696 46.7586 65.5203 47.0323 66.8433 46.6585C69.4619 45.9185 71.3172 43.356 71.9381 40.7939C72.5682 38.1847 71.8689 35.4464 70.2747 33.3196C68.7106 31.2216 66.0416 29.244 63.3009 29.9436C60.8024 30.5836 58.3194 33.3348 59.3447 36.0496C59.4523 36.3316 59.6149 36.5983 59.8061 36.8349C59.8847 36.9319 60.0825 36.6321 60.0284 36.5432Z" fill="#5E4345"/>
<path d="M62.3515 36.4713C62.9713 36.1735 63.5501 35.7015 63.7868 35.0347C63.9975 34.4345 63.921 33.7579 63.4376 33.3202C62.9805 32.8975 62.3283 32.8109 61.7493 33.0158C61.1292 33.2321 60.6419 33.7678 60.4369 34.3888C60.3268 34.7384 60.3055 35.1155 60.398 35.4759C60.4743 35.7516 60.6472 36.2159 60.9421 36.3198C61.0817 36.3702 61.1942 36.109 61.1587 36.0075C61.13 35.904 61.0472 35.8453 60.9881 35.7652C60.9145 35.6594 60.8477 35.5517 60.7996 35.4314C60.7072 35.2046 60.6678 34.9557 60.6891 34.7123C60.7447 34.1922 61.0817 33.7277 61.5512 33.5012C61.9932 33.2823 62.5237 33.2764 62.9525 33.5436C63.3901 33.8159 63.6138 34.3032 63.5113 34.8141C63.3944 35.4328 62.8552 35.8345 62.3209 36.0938C62.2236 36.143 62.1455 36.2612 62.1555 36.3772C62.1616 36.4794 62.2425 36.5312 62.3416 36.4889L62.3515 36.4713Z" fill="#5E4345"/>
<path d="M63.3949 41.653C63.9174 41.538 64.4941 41.5119 64.9847 41.762C65.4421 41.9991 65.8 42.4641 65.7433 43.0068C65.6859 43.52 65.2927 43.8887 64.8141 44.0287C64.2786 44.177 63.6912 44.0576 63.257 43.7176C63.0293 43.5357 62.8499 43.2885 62.753 43.0184C62.7117 42.8963 62.6842 42.7703 62.6705 42.6405C62.6559 42.4812 62.6765 42.3419 62.6276 42.1921C62.5681 42.0305 62.345 42.4263 62.3813 42.4236C62.1845 42.4336 62.3991 43.2352 62.4395 43.3279C62.5491 43.6168 62.7284 43.864 62.96 44.0597C63.4465 44.4817 64.159 44.6258 64.773 44.4409C65.3802 44.2579 65.8679 43.8037 66.0455 43.1904C66.2162 42.579 66.0256 41.9711 65.5449 41.5698C64.9707 41.0979 64.18 41.0719 63.4928 41.2325C63.3829 41.2629 63.3009 41.3673 63.2865 41.4752C63.2732 41.5606 63.3125 41.6759 63.4242 41.6523L63.3949 41.653Z" fill="#5E4345"/>
<path d="M62.3254 35.6028C62.4371 35.4456 62.5457 35.3042 62.6399 35.1371C62.7341 34.97 62.8213 34.8048 62.898 34.6277C63.0619 34.2854 63.217 33.9381 63.3145 33.5696C63.3336 33.505 63.2745 33.5584 63.2596 33.5848C63.0957 33.9271 62.9543 34.2706 62.7904 34.6129C62.7119 34.7831 62.6314 34.9464 62.5441 35.1116C62.4618 35.2681 62.397 35.4345 62.3234 35.5959C62.3273 35.6097 62.3254 35.6028 62.3234 35.5959L62.3254 35.6028Z" fill="#5E4345"/>
<path d="M62.037 35.4154C62.0854 35.2164 62.1582 35.0256 62.2046 34.8197C62.253 34.6207 62.3014 34.4218 62.3429 34.2247C62.3814 34.0433 62.413 33.8638 62.429 33.6813C62.4419 33.5144 62.4578 33.3318 62.4051 33.1683C62.388 33.1062 62.2881 33.2527 62.285 33.2683C62.2347 33.4604 62.2276 33.648 62.2223 33.8424C62.2113 34.0162 62.1778 34.1888 62.1442 34.3614C62.1126 34.5408 62.081 34.7203 62.0563 34.8979C62.0247 35.0774 62.0225 35.2561 61.9977 35.4337C61.9935 35.472 62.0389 35.4223 62.042 35.4066L62.037 35.4154Z" fill="#5E4345"/>
<path d="M61.569 35.4337C61.5735 35.3434 61.5937 35.2561 61.5914 35.1677C61.591 35.0862 61.5837 35.0065 61.5696 34.9288C61.5413 34.7733 61.5062 34.6197 61.4642 34.4681C61.4241 34.3233 61.3615 34.1773 61.3076 34.0364C61.2508 33.9111 61.2038 33.7682 61.2244 33.6289C61.2266 33.5837 61.2053 33.56 61.166 33.5783C61.1198 33.5985 61.0783 33.6619 61.0691 33.709C61.1492 33.5978 61.1622 33.5645 61.1118 33.623C61.1069 33.6317 61.1019 33.6405 61.0901 33.6512C61.0752 33.6776 61.0672 33.7021 61.0592 33.7266C61.0482 33.7668 61.0459 33.8119 61.0436 33.8571C61.0471 33.9229 61.073 33.99 61.0971 34.0501C61.1597 34.1961 61.2292 34.3402 61.2868 34.4949C61.3464 34.6566 61.3903 34.8151 61.4292 34.9825C61.4521 35.0652 61.4594 35.1449 61.4823 35.2276C61.4919 35.2621 61.5014 35.2965 61.511 35.331C61.5224 35.3724 61.5457 35.403 61.5571 35.4444C61.561 35.4582 61.5709 35.4406 61.5758 35.4318L61.569 35.4337Z" fill="#5E4345"/>
<path d="M65.8564 42.3742C65.6061 42.3248 65.3631 42.2213 65.1209 42.1474C64.9851 42.1108 64.8474 42.0672 64.7116 42.0306C64.567 41.989 64.432 41.9819 64.2794 41.9647C64.2726 41.9666 64.2558 41.9861 64.2646 41.9911C64.3943 42.0591 64.5083 42.124 64.6529 42.1656C64.7818 42.2042 64.9127 42.2496 65.0485 42.2862C65.3151 42.3682 65.5653 42.4177 65.8415 42.4006C65.8484 42.3987 65.8651 42.3792 65.8495 42.3761L65.8564 42.3742Z" fill="#5E4345"/>
<path d="M64.781 44.1493C64.7153 44.019 64.689 43.8704 64.6371 43.7364C64.5871 43.6092 64.5302 43.4839 64.4733 43.3586C64.3596 43.108 64.2458 42.8575 64.0997 42.6233C64.094 42.6026 64.0455 42.668 64.0513 42.6887C64.165 42.9392 64.2993 43.1841 64.4199 43.4328C64.4768 43.5581 64.5318 43.6764 64.5886 43.8017C64.6436 43.9201 64.7279 44.0378 64.7711 44.1669L64.781 44.1493Z" fill="#5E4345"/>
<path d="M63.272 43.9585C63.3032 43.8311 63.3413 43.7018 63.3482 43.5663C63.3588 43.4446 63.3675 43.316 63.3782 43.1943C63.3888 42.9389 63.3994 42.6836 63.3738 42.4309C63.368 42.4103 63.3661 42.4034 63.3417 42.3953C63.3417 42.3953 63.3348 42.3972 63.328 42.3991C63.2811 42.3898 63.2254 42.5091 63.2124 42.5424C63.1705 42.6579 63.2106 42.8027 63.2206 42.9187C63.2324 43.0416 63.2443 43.1645 63.2405 43.2843C63.2436 43.4022 63.2417 43.529 63.2311 43.6507C63.2254 43.7636 63.2334 43.8727 63.2365 43.9906C63.2403 44.0044 63.2552 43.978 63.2602 43.9692L63.272 43.9585Z" fill="#5E4345"/>
<path d="M69.4621 35.1628C69.748 35.8482 70.0861 36.482 70.2435 37.2104C70.3989 37.9319 70.4221 38.6826 70.3376 39.4186C70.1349 41.2488 69.2379 42.8407 68.1589 44.2826C68.1421 44.3021 68.1219 44.3894 68.1741 44.3378C69.3474 42.996 70.2424 41.2635 70.4879 39.4809C70.596 38.7235 70.5691 37.959 70.4334 37.2023C70.2986 36.4751 70.0668 35.6115 69.5204 35.0799C69.501 35.063 69.4583 35.1491 69.4621 35.1628Z" fill="#5E4345"/>
<path d="M69.7 37.2496C69.7864 37.9085 69.7885 38.5834 69.6987 39.2467C69.61 39.8873 69.4168 40.4975 69.2812 41.1289C69.266 41.2073 69.353 41.0942 69.3629 41.0766C69.6003 40.4393 69.7637 39.7482 69.8585 39.0762C69.9472 38.4356 69.9733 37.7826 69.7908 37.1502C69.7812 37.1157 69.6943 37.2289 69.7019 37.2565L69.7 37.2496Z" fill="#5E4345"/>
<path d="M56.8786 41.691C57.9212 41.1054 59.0452 40.7867 60.1695 40.416C61.3674 40.0174 62.5394 39.5518 63.6786 39.0211C63.6786 39.0211 63.6885 39.0035 63.6816 39.0054C62.5085 39.4936 61.3083 39.9373 60.1035 40.3377C59.0066 40.7009 57.83 40.9896 56.8797 41.6685C56.8728 41.6704 56.8668 41.7017 56.8786 41.691Z" fill="#5E4345"/>
<path d="M56.5081 40.2199C57.7042 39.8145 58.9212 39.4849 60.1439 39.1759C60.745 39.0243 61.348 38.8796 61.9384 38.7161C62.5425 38.5488 63.1672 38.3758 63.7271 38.102C63.7477 38.0963 63.7835 38.0121 63.7404 38.0166C63.1336 38.1476 62.536 38.365 61.9387 38.5304C61.3277 38.6996 60.7061 38.857 60.0912 39.0124C58.8704 39.3282 57.6564 39.6421 56.5104 40.1748C56.4967 40.1786 56.4856 40.2188 56.5062 40.2131L56.5081 40.2199Z" fill="#5E4345"/>
<path d="M56.1655 38.5557C56.5035 38.5215 56.838 38.555 57.1778 38.5277C57.5177 38.5004 57.8537 38.4593 58.1947 38.4094C58.8972 38.3039 59.6078 38.1739 60.2885 37.9631C60.3023 37.9593 60.332 37.9066 60.3045 37.9142C59.6363 38.0101 58.9658 38.1513 58.2976 38.2473C57.9635 38.2953 57.6294 38.3433 57.2865 38.3863C56.9161 38.4369 56.5454 38.5395 56.1724 38.5538C56.1724 38.5538 56.1655 38.5557 56.1743 38.5607L56.1655 38.5557Z" fill="#5E4345"/>
<path d="M57.2405 42.4371C57.5906 42.3401 57.9308 42.2607 58.2694 42.1224C58.6287 41.9784 58.9861 41.8275 59.3396 41.6627C59.6744 41.5106 59.9986 41.3466 60.3296 41.1807C60.6793 41.0022 61.0584 40.823 61.3722 40.5951C61.3978 40.5806 61.4702 40.4418 61.3947 40.4627C61.0503 40.5803 60.7239 40.7895 60.3978 40.9466C60.058 41.1075 59.7182 41.2684 59.3765 41.4224C59.0279 41.5783 58.6794 41.7342 58.3308 41.8902C57.9616 42.0518 57.6108 42.2529 57.2416 42.4145C57.2416 42.4145 57.2317 42.4321 57.2385 42.4302L57.2405 42.4371Z" fill="#5E4345"/>
<path d="M41.0542 58.2691C41.1113 58.0752 41.1543 57.8034 41.3061 57.6575C41.4392 57.5241 41.6646 57.484 41.8393 57.5544C41.9633 57.6017 42.1247 57.7574 42.1354 57.9029C42.1412 58.0572 41.8196 58.1239 41.6823 58.162C40.8566 58.3832 39.9771 58.4635 39.1269 58.5431C38.3561 58.6155 37.5341 58.5833 36.8278 58.9422C36.1421 59.2954 35.7262 59.9822 35.7013 60.7462C35.6763 61.5102 35.9222 62.318 36.1089 63.0457C36.2178 63.4387 36.3334 63.8297 36.4903 64.2094C36.6308 64.5565 36.769 64.9487 37.0994 65.1541C37.6392 65.502 38.4478 65.3523 39.0244 65.1926C39.6423 65.0215 40.2227 64.7419 40.807 64.4762C41.4374 64.1903 42.0991 63.9106 42.7974 63.8433C43.1354 63.8091 43.5828 63.7966 43.7664 64.1391C43.803 64.2181 43.7664 64.1391 43.7969 64.1158C43.7526 64.1429 43.687 64.1463 43.6283 64.1477C43.5196 64.1555 43.4063 64.1201 43.3048 64.074C43.0717 63.953 42.9019 63.7402 42.7359 63.5412C42.5864 63.3748 42.2589 63.8737 42.3596 64.024C42.5882 64.3689 42.9125 64.7393 43.3607 64.7562C43.7482 64.7677 44.0521 64.4237 44.1817 64.0909C44.3113 63.7581 44.2296 63.4096 43.8782 63.262C43.5425 63.1174 43.1615 63.1561 42.8156 63.2148C41.3731 63.451 40.1711 64.4222 38.7191 64.6239C38.3282 64.6802 37.8327 64.7061 37.4897 64.4819C37.1185 64.2358 36.9662 63.6322 36.8348 63.2381C36.6825 62.7681 36.5576 62.2905 36.4396 61.811C36.3369 61.3867 36.2117 60.9612 36.2001 60.519C36.1896 60.0542 36.331 59.7108 36.7399 59.4788C37.1369 59.2575 37.6071 59.1941 38.0519 59.1451C39.0206 59.0401 39.9826 58.937 40.9441 58.7524C41.3999 58.6633 41.9289 58.5984 42.2545 58.2262C42.4943 57.9445 42.6483 57.4862 42.345 57.1916C41.6887 56.5569 40.655 57.6819 40.9016 58.3856C40.9245 58.4683 41.0423 58.2798 41.0523 58.2622L41.0542 58.2691Z" fill="#5E4345"/>
<path d="M39.9195 58.4423C39.3032 57.4179 39.2501 56.052 39.7647 54.9742C40.3399 53.7683 41.5751 52.9438 42.8295 52.5889C45.3676 51.8786 47.8535 53.5951 49.3935 55.4994C50.887 57.3423 51.7784 59.7603 51.4915 62.1408C51.2065 64.5282 49.7609 66.7545 47.5378 67.7487C46.1878 68.3453 44.675 68.2744 43.3982 67.5071C42.1671 66.7718 41.3588 65.4813 41.0956 64.0771C41.041 63.7731 40.58 64.3238 40.6186 64.5432C40.8745 65.8678 41.5813 67.1121 42.6759 67.915C43.7723 68.7248 45.2012 69.0268 46.5201 68.6912C49.1735 68.0232 51.108 65.4536 51.7583 62.8908C52.4227 60.2721 51.7678 57.5067 50.1777 55.3416C48.6304 53.2241 45.985 51.2252 43.2286 51.9217C41.6882 52.3112 40.2967 53.372 39.5507 54.7885C38.8969 56.031 38.8196 57.5667 39.6953 58.7271C39.767 58.826 39.9718 58.5243 39.9176 58.4354L39.9195 58.4423Z" fill="#5E4345"/>
<path d="M42.2473 58.4138C42.8777 58.1278 43.4516 57.6646 43.7039 57.0009C43.9322 56.4106 43.8538 55.7272 43.3822 55.2788C42.3593 54.3076 40.771 55.1112 40.3682 56.2991C40.2512 56.6507 40.228 57.0208 40.3136 57.3831C40.3762 57.6627 40.5491 58.1269 40.8459 58.2377C40.9611 58.2801 41.1037 58.0476 41.0701 57.953C41.0376 57.8358 40.9598 57.7682 40.8968 57.6743C40.8232 57.5686 40.7633 57.459 40.7152 57.3387C40.6297 57.11 40.5903 56.8611 40.6185 56.6157C40.6877 56.0918 41.0286 55.6411 41.5068 55.4196C41.9576 55.2057 42.4851 55.2155 42.909 55.4915C43.3416 55.7725 43.5515 56.2637 43.4403 56.7695C43.3077 57.3852 42.7598 57.7819 42.2197 58.0206C42.042 58.0995 41.9823 58.5243 42.2317 58.4107L42.2473 58.4138Z" fill="#5E4345"/>
<path d="M43.1926 63.6151C43.717 63.507 44.2907 63.4966 44.7763 63.7555C45.22 63.9963 45.5691 64.4564 45.5086 64.9853C45.4512 65.4985 45.058 65.8672 44.5794 66.0072C44.0508 66.1535 43.479 66.0373 43.0399 65.7061C42.7984 65.528 42.6171 65.2739 42.5163 64.99C42.4732 64.8609 42.4438 64.728 42.43 64.5983C42.4155 64.439 42.441 64.2909 42.3902 64.1342C42.373 64.0722 42.2727 64.1371 42.256 64.1565C42.1179 64.2987 42.0779 64.4211 42.0726 64.6156C42.0666 64.7806 42.0918 64.9517 42.1357 65.1103C42.2159 65.3998 42.3598 65.6792 42.5658 65.8893C43.0244 66.371 43.7267 66.5847 44.3785 66.4562C45.001 66.3284 45.5463 65.8953 45.762 65.2862C45.9777 64.6772 45.8363 64.0335 45.3529 63.5958C44.7829 63.0856 43.9797 63.0408 43.2661 63.1865C43.0837 63.2221 42.9534 63.6591 43.1907 63.6082L43.1926 63.6151Z" fill="#5E4345"/>
<path d="M42.228 57.5431C42.3416 57.3929 42.4571 57.2496 42.5513 57.0825C42.6454 56.9154 42.7327 56.7501 42.8181 56.578C42.9889 56.2338 43.1528 55.8915 43.2503 55.5231C43.2694 55.4584 43.2103 55.5119 43.1954 55.5383C43.0227 55.8756 42.8744 56.221 42.7086 56.5564C42.6232 56.7285 42.5359 56.8937 42.4487 57.0589C42.3663 57.2153 42.2996 57.3748 42.2241 57.5293C42.228 57.5431 42.226 57.5362 42.2241 57.5293L42.228 57.5431Z" fill="#5E4345"/>
<path d="M41.9533 57.352C42.0067 57.1442 42.0844 56.9446 42.1328 56.7456C42.1812 56.5466 42.2364 56.3457 42.2779 56.1487C42.3164 55.9673 42.3568 55.7928 42.3659 55.6121C42.3807 55.4522 42.3986 55.2765 42.3478 55.1198C42.3306 55.0578 42.2307 55.2042 42.2277 55.2199C42.1755 55.4051 42.1683 55.5926 42.1493 55.7909C42.1364 55.9578 42.1009 56.1235 42.0655 56.2892C42.0271 56.4705 42.0023 56.6481 41.9688 56.8207C41.9372 57.0002 41.93 57.1877 41.8984 57.3672C41.8942 57.4055 41.9396 57.3558 41.9426 57.3401L41.9533 57.352Z" fill="#5E4345"/>
<path d="M41.4815 57.3565C41.488 57.2731 41.5032 57.1946 41.5116 57.1181C41.5181 57.0347 41.5089 56.9481 41.4928 56.8635C41.4714 56.7061 41.4363 56.5525 41.3943 56.4009C41.3523 56.2492 41.2985 56.1082 41.2427 55.9604C41.1908 55.8263 41.1458 55.6903 41.1663 55.551C41.1686 55.5058 41.1472 55.4821 41.1099 55.5073C41.0637 55.5275 41.0222 55.5909 41.013 55.638C41.0931 55.5268 41.106 55.4935 41.0557 55.5519C41.0508 55.5607 41.0458 55.5695 41.034 55.5802C41.0191 55.6066 41.0111 55.6311 41.0031 55.6556C40.9921 55.6958 40.9898 55.7409 40.9875 55.7861C40.991 55.8519 41.01 55.9209 41.041 55.9791C41.0967 56.127 41.1681 56.278 41.2238 56.4258C41.2834 56.5875 41.3204 56.7479 41.3594 56.9153C41.3823 56.998 41.3827 57.0796 41.4056 57.1623C41.4151 57.1968 41.4247 57.2312 41.4342 57.2657C41.4457 57.3071 41.469 57.3377 41.4735 57.381C41.4774 57.3948 41.4873 57.3772 41.4922 57.3684L41.4815 57.3565Z" fill="#5E4345"/>
<path d="M45.6431 64.3764C45.5092 64.3467 45.3921 64.2975 45.2701 64.2571C45.148 64.2167 45.024 64.1693 44.8951 64.1308C44.7574 64.0873 44.6284 64.0488 44.4907 64.0053C44.353 63.9617 44.2249 63.9527 44.0811 63.9406C44.0742 63.9425 44.0574 63.962 44.0662 63.967C44.189 64.0369 44.3031 64.1018 44.4408 64.1453C44.5785 64.1888 44.7181 64.2392 44.8558 64.2827C45.1156 64.3666 45.359 64.418 45.637 64.4078C45.6439 64.4059 45.6607 64.3864 45.645 64.3833L45.6431 64.3764Z" fill="#5E4345"/>
<path d="M44.5345 66.1383C44.4707 66.015 44.4512 65.8645 44.3993 65.7304C44.3562 65.6013 44.2974 65.4692 44.2405 65.3439C44.1336 65.0914 44.0268 64.8389 43.8856 64.596C43.8798 64.5753 43.8314 64.6407 43.8371 64.6613C43.9509 64.9119 44.0784 65.1587 44.1921 65.4092C44.249 65.5345 44.299 65.6617 44.3559 65.787C44.4108 65.9054 44.4883 66.025 44.5295 66.1471L44.5345 66.1383Z" fill="#5E4345"/>
<path d="M43.0335 65.9231C43.0647 65.7957 43.1047 65.6733 43.1203 65.5428C43.1378 65.4192 43.1466 65.2906 43.1553 65.162C43.1728 64.9048 43.1815 64.6426 43.1696 64.3861C43.1638 64.3654 43.1619 64.3585 43.1375 64.3504C43.1375 64.3504 43.1375 64.3504 43.1306 64.3523C43.0837 64.343 43.0281 64.4624 43.0151 64.4956C42.9732 64.6112 43.0133 64.7559 43.0251 64.8788C43.037 65.0017 43.0401 65.1197 43.0432 65.2376C43.0394 65.3574 43.0356 65.4772 43.0318 65.597C43.0262 65.7099 43.0292 65.8278 43.0236 65.9407C43.0274 65.9545 43.0442 65.935 43.0422 65.9281L43.0335 65.9231Z" fill="#5E4345"/>
<path d="M49.3785 57.2331C49.6507 57.9223 49.977 58.5668 50.1275 59.297C50.2711 60.0292 50.2756 60.7926 50.1774 61.5323C49.9346 63.3513 49.0124 64.9057 47.9139 66.3308C47.8972 66.3503 47.877 66.4375 47.9292 66.3859C49.1307 65.066 50.0502 63.3416 50.3288 61.572C50.4457 60.8197 50.4393 60.0495 50.3125 59.2978C50.1913 58.5668 49.9733 57.6993 49.4387 57.157C49.4262 57.1382 49.3766 57.2262 49.3804 57.24L49.3785 57.2331Z" fill="#5E4345"/>
<path d="M49.5751 59.3312C49.6478 59.994 49.6431 60.6708 49.5376 61.3309C49.4333 61.9685 49.2313 62.5737 49.0801 63.202C49.0629 63.2735 49.1518 63.1673 49.1617 63.1497C49.4148 62.5154 49.587 61.8294 49.6955 61.1536C49.7979 60.5091 49.8328 59.8611 49.664 59.2249C49.6544 59.1905 49.5675 59.3036 49.5751 59.3312Z" fill="#5E4345"/>
<path d="M36.6732 63.5352C37.7216 62.9702 38.8581 62.6703 39.9882 62.3202C41.1919 61.9423 42.3696 61.4974 43.5232 60.9924C43.5232 60.9924 43.5331 60.9748 43.5263 60.9767C42.3387 61.4392 41.1327 61.8622 39.9222 62.242C38.8196 62.5845 37.6354 62.8456 36.6744 63.5126C36.6675 63.5145 36.6614 63.5459 36.6732 63.5352Z" fill="#5E4345"/>
<path d="M36.3302 62.0565C37.532 61.6717 38.7547 61.3628 39.9851 61.0814C40.59 60.9436 41.188 60.8077 41.7891 60.656C42.3971 60.5025 43.0256 60.3433 43.5855 60.0695C43.606 60.0638 43.6419 59.9796 43.5988 59.9841C43.0019 60.0975 42.4161 60.3043 41.8306 60.459C41.2177 60.6213 40.5991 60.7629 39.9736 60.9064C38.7314 61.1985 37.498 61.4955 36.3325 62.0113C36.3188 62.0151 36.3009 62.0572 36.3215 62.0515L36.3302 62.0565Z" fill="#5E4345"/>
<path d="M36.022 60.3827C36.3618 60.3554 36.7051 60.3939 37.0468 60.3735C37.3817 60.355 37.7197 60.3208 38.0469 60.2747C38.7514 60.1761 39.4608 60.0687 40.1435 59.8648C40.1572 59.861 40.1801 59.8101 40.1595 59.8158C39.4874 59.898 38.82 60.0235 38.1479 60.1057C37.7982 60.1506 37.4465 60.1886 37.0968 60.2335C36.7401 60.2803 36.3725 60.3673 36.0132 60.3777C36.0132 60.3777 36.0063 60.3796 36.0151 60.3846L36.022 60.3827Z" fill="#5E4345"/>
<path d="M37.0213 64.2849C37.3783 64.1861 37.7292 64.1186 38.0766 63.9852C38.4378 63.8481 38.7902 63.706 39.1387 63.5501C39.4686 63.4067 39.7947 63.2496 40.1208 63.0925C40.4724 62.9209 40.8671 62.7448 41.1897 62.5219C41.2153 62.5074 41.2877 62.3685 41.2122 62.3895C41.0425 62.4439 40.8842 62.5397 40.7221 62.6217C40.5581 62.6968 40.3873 62.7738 40.2233 62.8489C39.8766 63.0117 39.5261 63.1607 39.1776 63.3166C38.8339 63.4638 38.4903 63.6109 38.1398 63.7599C37.7619 63.9165 37.4023 64.1126 37.0331 64.2742C37.0331 64.2742 37.0232 64.2918 37.0301 64.2899L37.0213 64.2849Z" fill="#5E4345"/>
<path d="M54.2253 27.3057C53.5928 28.0376 52.9476 28.7507 52.3627 29.5213C51.7611 30.3114 51.2178 31.1522 50.7058 31.9992C49.6769 33.7019 48.7776 35.4726 48.015 37.3094C47.5808 38.3575 47.1906 39.4305 46.8473 40.5128C46.7962 40.6754 46.802 40.9633 47.0453 40.8811C47.2955 40.7969 47.4751 40.4577 47.5452 40.2305C48.7059 36.6281 50.3458 33.2346 52.4029 30.0669C52.9977 29.1451 53.573 28.2063 54.2417 27.3382C54.2635 27.31 54.2589 27.2667 54.2322 27.3038L54.2253 27.3057Z" fill="#5E4345"/>
<path d="M57.2064 23.4441C56.0895 25.5497 55.7058 27.9274 55.0077 30.1842C54.6842 31.2314 54.2943 32.2523 53.7278 33.1961C53.1861 34.0958 52.507 34.8999 51.7356 35.6109C50.8292 36.4483 49.7496 37.1407 48.6474 37.6983C48.4343 37.8093 48.278 38.0456 48.2078 38.2728C48.1697 38.4021 48.1511 38.6819 48.37 38.5916C50.5393 37.7236 52.3765 36.0569 53.6831 34.1289C55.0796 32.072 55.7521 29.696 56.2994 27.2953C56.5973 25.9955 56.9333 24.7 57.3739 23.4348C57.4448 23.2371 57.2541 23.3492 57.1996 23.446L57.2064 23.4441Z" fill="#5E4345"/>
<path d="M47.897 38.4851C47.7149 37.9343 47.7037 37.3065 47.6489 36.7352C47.6026 36.221 47.5857 35.7061 47.6294 35.1967C47.7286 34.1671 48.0342 33.1621 48.5046 32.245C49.6402 29.9932 51.7085 28.307 53.664 26.8004C54.2604 26.3384 54.8656 25.8813 55.4689 25.4173C55.7858 25.1737 56.1095 24.9281 56.4245 24.6776C56.7562 24.4076 57.0422 24.1057 57.3206 23.7762C57.3659 23.7265 57.4932 23.4389 57.3304 23.4914C56.6614 23.6915 56.1184 24.2131 55.5693 24.6324C54.9897 25.0749 54.412 25.5244 53.8392 25.9651C52.7192 26.832 51.6031 27.7126 50.5957 28.7191C48.8134 30.5042 47.3609 32.7325 47.0474 35.2837C46.9717 35.891 46.9505 36.5353 47.0529 37.1453C47.0999 37.4217 47.1755 37.668 47.298 37.9236C47.3549 38.0489 47.4049 38.176 47.4736 38.2906C47.5549 38.424 47.6617 38.5429 47.7449 38.6831C47.7903 38.767 47.9161 38.5541 47.8921 38.4939L47.897 38.4851Z" fill="#5E4345"/>
<path d="M48.2766 37.133C48.4056 36.3178 48.6647 35.5186 48.8964 34.727C49.117 33.9756 49.3308 33.2261 49.527 32.4666C49.5441 32.3951 49.4751 32.4661 49.4602 32.4925C49.1908 33.2278 48.9583 33.9899 48.7846 34.7506C48.5961 35.5376 48.472 36.344 48.2609 37.1299C48.2647 37.1437 48.2678 37.128 48.2746 37.1261L48.2766 37.133Z" fill="#5E4345"/>
<path d="M48.3192 36.9134C48.5225 36.6864 48.7558 36.4882 48.9629 36.275C49.1867 36.0422 49.3998 35.7976 49.6149 35.5599C50.04 35.0933 50.4808 34.6298 50.9235 34.1732C51.8463 33.2347 52.7797 32.3082 53.7219 31.3866C53.7574 31.3545 53.8214 31.1587 53.723 31.2304C52.7171 32.0286 51.7771 32.905 50.8906 33.8409C50.438 34.3151 50.003 34.7993 49.5698 35.2904C49.3567 35.535 49.1416 35.7727 48.9392 36.0291C48.715 36.3139 48.5327 36.6168 48.3154 36.8996C48.3154 36.8996 48.3143 36.9222 48.3192 36.9134Z" fill="#5E4345"/>
<path d="M50.1395 33.4773C50.332 33.2384 50.5741 33.0451 50.7881 32.83C50.9852 32.6344 51.1892 32.4368 51.3776 32.2362C51.7878 31.796 52.1699 31.3339 52.587 30.8918C52.5988 30.8811 52.6099 30.8409 52.5794 30.8642C52.1645 31.2612 51.7233 31.6431 51.3279 32.057C51.1277 32.2683 50.9382 32.4915 50.7556 32.7128C50.5444 32.9643 50.3614 33.2377 50.1356 33.4635C50.1288 33.4654 50.1276 33.488 50.1395 33.4773Z" fill="#5E4345"/>
<path d="M51.2862 31.4525C51.4226 31.2514 51.5767 31.0603 51.7113 30.8523C51.8626 30.6248 51.9877 30.3823 52.1108 30.133C52.2289 29.8924 52.3402 29.6538 52.4496 29.4082C52.5491 29.1802 52.6566 28.9278 52.721 28.6798C52.7442 28.5769 52.6577 28.638 52.6329 28.682C52.4933 28.8988 52.3733 29.1324 52.2513 29.3592C52.1293 29.586 52.0092 29.8197 51.8872 30.0464C51.7672 30.2801 51.6471 30.5138 51.5426 30.7505C51.4413 30.9716 51.3593 31.2096 51.2579 31.4306C51.2381 31.4658 51.2732 31.4858 51.293 31.4506L51.2862 31.4525Z" fill="#5E4345"/>
<path d="M51.9297 30.4132C52.4483 30.0172 52.9902 29.6518 53.5088 29.2558C53.7784 29.055 54.0374 28.8422 54.2787 28.6195C54.527 28.3949 54.8099 28.1087 54.9715 27.8116C55.0013 27.7588 55.0436 27.5912 54.9314 27.6668C54.8056 27.7462 54.7 27.8719 54.5867 27.9701C54.4735 28.0683 54.3583 28.1595 54.2382 28.2596C53.9743 28.4811 53.7017 28.6977 53.434 28.9054C52.8799 29.3335 52.364 29.7659 51.9167 30.3128C51.8999 30.3323 51.8569 30.4705 51.9297 30.4132Z" fill="#5E4345"/>
<path d="M63.148 55.0677C62.4765 54.3778 61.813 53.6633 61.101 53.0143C60.3628 52.3503 59.5772 51.7291 58.7738 51.1499C57.1699 49.9759 55.481 48.922 53.7197 48.0068C52.7103 47.4847 51.683 47.0047 50.6309 46.5686C50.4718 46.5013 50.1861 46.484 50.248 46.734C50.3118 46.991 50.6353 47.1983 50.852 47.2868C54.3321 48.7502 57.5741 50.6879 60.5529 53.0102C61.4194 53.6833 62.3026 54.3369 63.1137 55.0772C63.1351 55.101 63.1801 55.1033 63.148 55.0677Z" fill="#5E4345"/>
<path d="M66.7424 58.3849C64.743 57.0903 62.4058 56.498 60.2234 55.6104C59.2064 55.1943 58.2241 54.7166 57.3359 54.0719C56.4917 53.4521 55.7461 52.7084 55.102 51.8773C54.3435 50.8997 53.7466 49.7586 53.2809 48.6109C53.1885 48.3841 52.9627 48.2091 52.7479 48.1275C52.6151 48.0752 52.3462 48.0384 52.4161 48.264C53.0972 50.51 54.6064 52.4896 56.4186 53.9622C58.3475 55.5361 60.6524 56.412 62.9953 57.1587C64.261 57.5653 65.5225 58.0101 66.7402 58.5637C66.9275 58.6528 66.8409 58.4467 66.7443 58.3918L66.7424 58.3849Z" fill="#5E4345"/>
<path d="M52.5643 47.785C53.1261 47.6517 53.7494 47.6869 54.3249 47.6834C54.8418 47.6813 55.3506 47.7037 55.8579 47.8007C56.8706 47.9879 57.8457 48.3859 58.7189 48.9235C60.8679 50.2508 62.3676 52.4632 63.7066 54.5493C64.1191 55.1847 64.5267 55.829 64.9323 56.4664C65.1521 56.8063 65.3651 57.1482 65.5918 57.4862C65.831 57.8431 66.1088 58.1521 66.4159 58.4605C66.4655 58.5061 66.7375 58.6609 66.7005 58.5004C66.5546 57.8134 66.081 57.2245 65.7063 56.6454C65.3133 56.0268 64.9152 55.4171 64.5222 54.7985C63.7475 53.6027 62.966 52.4088 62.0506 51.3188C60.4217 49.3871 58.3318 47.7391 55.82 47.21C55.2238 47.0856 54.5803 47.004 53.975 47.0603C53.6939 47.0862 53.4429 47.1408 53.1809 47.2357C53.0543 47.2856 52.9238 47.3217 52.7991 47.3785C52.6576 47.4548 52.5356 47.548 52.3922 47.6174C52.3068 47.6559 52.5006 47.7952 52.5712 47.7831L52.5643 47.785Z" fill="#5E4345"/>
<path d="M53.8686 48.2773C54.6639 48.4802 55.4417 48.8066 56.2031 49.1005C56.9313 49.3813 57.6596 49.6621 58.3889 49.9204C58.4622 49.9446 58.3962 49.8664 58.3698 49.8514C57.6626 49.5128 56.9256 49.227 56.1844 48.9795C55.4119 48.7258 54.6254 48.528 53.8628 48.2567C53.8472 48.2536 53.8647 48.2636 53.8666 48.2704L53.8686 48.2773Z" fill="#5E4345"/>
<path d="M54.0932 48.3414C54.3031 48.5653 54.4755 48.8145 54.6785 49.0403C54.8872 49.2869 55.1196 49.512 55.3352 49.7566C55.7675 50.2233 56.1879 50.7007 56.6035 51.1869C57.4578 52.1899 58.3003 53.2036 59.1428 54.2173C59.1748 54.253 59.3602 54.3352 59.2953 54.2344C58.5825 53.1551 57.785 52.1438 56.9334 51.1772C56.5022 50.6879 56.0573 50.2024 55.6006 49.7277C55.3801 49.4918 55.1527 49.2579 54.9203 49.0327C54.6598 48.7857 54.3725 48.5758 54.105 48.3307C54.105 48.3307 54.0875 48.3207 54.0913 48.3345L54.0932 48.3414Z" fill="#5E4345"/>
<path d="M57.3485 50.4609C57.5702 50.6741 57.7446 50.9302 57.9357 51.1667C58.1143 51.3845 58.2929 51.6022 58.4745 51.8043C58.8805 52.256 59.3082 52.6794 59.7123 53.1242C59.7161 53.138 59.763 53.1473 59.7416 53.1235C59.3807 52.6742 59.0433 52.2035 58.6568 51.7687C58.4626 51.5478 58.2585 51.3445 58.0525 51.1344C57.825 50.9004 57.5622 50.6986 57.3516 50.4452C57.3497 50.4383 57.3272 50.4371 57.3378 50.449L57.3485 50.4609Z" fill="#5E4345"/>
<path d="M59.2725 51.7764C59.4632 51.9314 59.6422 52.0971 59.8329 52.2521C60.05 52.4221 60.2839 52.5726 60.5158 52.7162C60.739 52.8548 60.9759 52.9896 61.2109 53.1176C61.4284 53.2355 61.6721 53.3684 61.9094 53.4511C62.0071 53.4835 61.9597 53.3927 61.914 53.3608C61.7144 53.2008 61.4912 53.0622 61.2749 52.9217C61.0586 52.7812 60.8423 52.6407 60.6191 52.5021C60.4028 52.3615 60.1796 52.2229 59.9515 52.0931C59.7341 51.9752 59.5136 51.873 59.303 51.7531C59.2679 51.7332 59.2462 51.7614 59.2832 51.7883L59.2725 51.7764Z" fill="#5E4345"/>
<path d="M60.251 52.5075C60.6025 53.0559 60.9185 53.6365 61.27 54.1849C61.452 54.4685 61.639 54.7434 61.8397 55.0144C62.0473 55.2835 62.3025 55.5914 62.5909 55.7787C62.6367 55.8106 62.8007 55.8691 62.7389 55.7526C62.6714 55.6154 62.5508 55.5003 62.4665 55.3827C62.3734 55.26 62.294 55.1335 62.2078 55.0089C62.012 54.7291 61.8193 54.4336 61.6285 54.145C61.2431 53.554 60.8603 52.9994 60.3548 52.5084C60.3334 52.4847 60.2094 52.4373 60.251 52.5075Z" fill="#5E4345"/>
<path d="M29.7579 67.0164C29.1322 67.7464 28.4802 68.4614 27.8953 69.2321C27.2937 70.0222 26.7573 70.8611 26.2384 71.7099C25.2095 73.4126 24.3122 75.1903 23.5564 77.0252C23.1222 78.0732 22.732 79.1463 22.3974 80.2336C22.3464 80.3962 22.3522 80.684 22.5955 80.6018C22.8388 80.5196 23.0252 80.1785 23.0953 79.9512C24.2492 76.3508 25.8871 72.9503 27.9356 69.7777C28.5303 68.8558 29.0987 67.919 29.7656 67.044C29.7873 67.0157 29.7827 66.9725 29.756 67.0096L29.7579 67.0164Z" fill="#5E4345"/>
<path d="M32.7124 63.1921C31.6221 65.2606 31.2445 67.6069 30.5662 69.8286C30.2526 70.8581 29.8814 71.8665 29.3317 72.7907C28.7789 73.7306 28.0819 74.5768 27.2819 75.318C26.3755 76.1554 25.2959 76.8478 24.2006 77.4035C23.9875 77.5145 23.8311 77.7508 23.761 77.978C23.7229 78.1073 23.7043 78.3871 23.9232 78.2968C26.0925 77.4288 27.9278 75.7552 29.2343 73.8272C30.6339 71.7546 31.3026 69.3648 31.853 66.9485C32.1459 65.6574 32.4789 64.3776 32.9095 63.1301C32.9934 62.899 32.7531 63.0991 32.7104 63.1852L32.7124 63.1921Z" fill="#5E4345"/>
<path d="M23.4403 78.2078C23.2582 77.657 23.2401 77.0311 23.1922 76.458C23.1421 75.93 23.1233 75.4082 23.1769 74.8812C23.2799 73.8654 23.5825 72.876 24.0392 71.9627C25.166 69.7059 27.2411 68.0178 29.1947 66.5044C29.7911 66.0423 30.3944 65.5783 30.9908 65.1162C31.3077 64.8726 31.6314 64.6271 31.9445 64.3696C32.2763 64.0996 32.5622 63.7977 32.8406 63.4683C32.886 63.4186 33.0133 63.131 32.8504 63.1835C32.1815 63.3836 31.6404 63.912 31.0981 64.3294C30.5204 64.7789 29.9476 65.2196 29.3699 65.669C28.2499 66.5359 27.1357 67.4235 26.1351 68.428C24.3548 70.22 22.9004 72.4414 22.5956 74.9976C22.5199 75.605 22.4987 76.2492 22.608 76.8573C22.655 77.1337 22.7306 77.38 22.8531 77.6356C22.91 77.7609 22.96 77.8881 23.0287 78.0026C23.11 78.136 23.2168 78.2549 23.3 78.3951C23.3454 78.4791 23.4712 78.2661 23.4472 78.2059L23.4403 78.2078Z" fill="#5E4345"/>
<path d="M23.8199 76.8557C23.9489 76.0406 24.2081 75.2414 24.4397 74.4498C24.6603 73.6984 24.8741 72.9489 25.0634 72.1913C25.0806 72.1197 25.0116 72.1908 24.9967 72.2172C24.7272 72.9524 24.4998 73.7058 24.3261 74.4665C24.1394 75.2604 24.0172 76.0737 23.8062 76.8595C23.81 76.8733 23.813 76.8576 23.8199 76.8557Z" fill="#5E4345"/>
<path d="M23.8606 76.6292C24.0638 76.4022 24.2972 76.2039 24.5042 75.9907C24.728 75.758 24.9412 75.5134 25.1562 75.2757C25.5814 74.8091 26.0222 74.3456 26.4649 73.8889C27.3876 72.9505 28.3211 72.0239 29.2545 71.0974C29.29 71.0653 29.354 70.8694 29.2556 70.9412C28.2516 71.7463 27.3116 72.6227 26.4251 73.5585C25.9794 74.0308 25.5424 74.5081 25.1211 74.9885C24.9011 75.235 24.683 75.4884 24.4805 75.7449C24.2632 76.0278 24.0741 76.3325 23.8568 76.6154C23.8568 76.6154 23.8556 76.638 23.8606 76.6292Z" fill="#5E4345"/>
<path d="M25.6828 73.2C25.8753 72.9611 26.1175 72.7679 26.3314 72.5528C26.5285 72.3571 26.7325 72.1596 26.9209 71.959C27.3312 71.5188 27.7113 71.0498 28.1304 70.6146C28.1422 70.6039 28.1532 70.5637 28.1227 70.587C27.7079 70.9839 27.2667 71.3659 26.8732 71.7866C26.673 71.998 26.4835 72.2212 26.3008 72.4425C26.0896 72.694 25.9066 72.9673 25.6809 73.1931C25.674 73.195 25.6729 73.2176 25.6847 73.2069L25.6828 73.2Z" fill="#5E4345"/>
<path d="M26.8256 71.1614C26.9621 70.9603 27.1161 70.7692 27.2439 70.5631C27.3952 70.3356 27.5183 70.0863 27.6434 69.8438C27.7615 69.6032 27.8728 69.3646 27.9822 69.119C28.0817 68.8911 28.1892 68.6386 28.2536 68.3907C28.2768 68.2877 28.1902 68.3488 28.1655 68.3928C28.0259 68.6096 27.9059 68.8433 27.7839 69.07C27.6619 69.2968 27.5418 69.5305 27.4198 69.7573C27.2997 69.9909 27.1797 70.2246 27.0752 70.4613C26.9738 70.6824 26.8919 70.9204 26.7905 71.1414C26.7707 71.1766 26.8058 71.1966 26.8256 71.1614Z" fill="#5E4345"/>
<path d="M27.4623 70.124C27.9809 69.728 28.5228 69.3627 29.0414 68.9667C29.3091 68.7589 29.57 68.5531 29.8113 68.3303C30.0596 68.1057 30.3425 67.8195 30.5041 67.5224C30.5339 67.4696 30.5762 67.302 30.464 67.3776C30.3382 67.457 30.2326 67.5827 30.1193 67.6809C30.0061 67.7791 29.8909 67.8704 29.7708 67.9704C29.5069 68.192 29.2343 68.4085 28.9666 68.6162C28.4125 69.0443 27.8985 69.4836 27.4512 70.0306C27.4344 70.05 27.3914 70.1882 27.4642 70.1309L27.4623 70.124Z" fill="#5E4345"/>
<path d="M73.9489 45.7596C71.9487 46.8108 70.2768 48.9143 70.3717 51.2856C70.4124 52.3135 70.848 53.2989 71.5927 54.013C72.3111 54.7122 73.2774 55.1053 74.2592 55.2342C76.5887 55.5318 78.9833 54.3564 80.3501 52.4859C81.5984 50.7744 82.0256 48.3402 80.5696 46.6057C78.9426 44.681 76.0354 44.6993 73.944 45.7684C73.7887 45.8485 73.6633 46.0094 73.6142 46.1789C73.5921 46.2592 73.5708 46.5027 73.7328 46.4207C75.4814 45.5282 77.7299 45.3731 79.3944 46.5526C80.9742 47.6664 81.4039 49.752 80.5844 51.4635C79.6814 53.354 77.548 54.5386 75.4979 54.6091C73.6377 54.6714 71.7227 53.7618 71.0779 51.9139C70.2862 49.6688 71.7974 47.4391 73.7397 46.4188C73.8949 46.3387 74.0204 46.1777 74.0695 46.0082C74.0916 45.9279 74.1129 45.6845 73.9508 45.7665L73.9489 45.7596Z" fill="#5E4345"/>
<path d="M74.5371 46.8957C73.0349 47.6903 71.7496 49.2413 71.7616 51.0195C71.7788 52.6032 73.0425 53.7229 74.5465 53.9225C76.2969 54.1578 78.1198 53.2669 79.1691 51.8778C80.1097 50.6301 80.563 48.7973 79.474 47.4807C78.2725 46.0246 76.0824 46.0967 74.5352 46.8888C74.38 46.9689 74.2545 47.1299 74.2054 47.2994C74.1833 47.3797 74.162 47.6231 74.3241 47.5411C75.5883 46.9015 77.2074 46.7426 78.432 47.5614C79.5738 48.3215 79.9061 49.7883 79.3191 51.0049C78.6616 52.3672 77.0896 53.2034 75.6169 53.2772C74.2961 53.3387 72.9045 52.7442 72.4155 51.4322C71.8238 49.8295 72.9496 48.2632 74.3241 47.5411C74.4793 47.461 74.6047 47.3001 74.6539 47.1306C74.676 47.0503 74.6973 46.8068 74.5352 46.8888L74.5371 46.8957Z" fill="#5E4345"/>
<path d="M35.8372 42.5004C34.5844 44.3023 34.023 46.8924 35.2209 48.8692C36.3501 50.7313 38.6353 51.1896 40.567 50.4245C42.7569 49.5508 44.4009 47.3735 44.7706 45.0517C45.0972 43.0016 44.2841 40.7327 42.234 39.9495C39.7946 39.0144 37.236 40.532 35.8372 42.5004C35.7789 42.5834 35.6508 42.8416 35.7755 42.9184C35.9022 43.002 36.0703 42.7551 36.1256 42.6878C37.2576 41.0902 39.2902 40.0225 41.2684 40.4396C43.1997 40.8475 44.3518 42.6588 44.3531 44.5586C44.3541 46.6441 43.0755 48.6461 41.2277 49.5809C39.549 50.4318 37.413 50.3256 36.1019 48.8478C34.5666 47.1204 34.8896 44.4701 36.1256 42.6878C36.1839 42.6048 36.312 42.3467 36.1873 42.2699C36.0606 42.1862 35.8906 42.4263 35.8372 42.5004Z" fill="#5E4345"/>
<path d="M36.8833 43.2351C35.9587 44.5674 35.4783 46.4894 36.3282 47.9835C37.1308 49.3868 38.8366 49.7013 40.2511 49.1239C41.9033 48.4437 43.1393 46.795 43.4531 45.0454C43.725 43.5449 43.187 41.816 41.6524 41.2389C39.8122 40.546 37.9222 41.782 36.8833 43.2351C36.8249 43.3181 36.6968 43.5762 36.8216 43.653C36.9483 43.7367 37.1164 43.4897 37.1717 43.4224C37.9853 42.2767 39.4531 41.4916 40.8714 41.7818C42.2495 42.0607 43.0341 43.3725 43.0296 44.7173C43.0171 46.2202 42.0949 47.641 40.7834 48.3233C39.5946 48.942 38.0621 48.9063 37.12 47.8533C36.0139 46.6083 36.2906 44.6982 37.1717 43.4224C37.23 43.3395 37.3581 43.0813 37.2333 43.0045C37.1067 42.9209 36.9366 43.1609 36.8852 43.242L36.8833 43.2351Z" fill="#5E4345"/>
<path d="M30.8039 55.9267C30.5229 56.3534 30.2763 56.7705 30.0742 57.2422C29.9767 57.477 29.8879 57.7169 29.8079 57.9617C29.7358 58.1821 29.6539 58.42 29.6219 58.6516C29.5972 58.8291 29.5976 59.0443 29.7308 59.1781C29.8834 59.3289 30.11 59.2661 30.2953 59.2148C30.7072 59.1007 31.0867 58.8694 31.4165 58.5925C31.6144 58.4264 31.8016 58.2483 31.9801 58.0653C32.1566 57.8754 32.3625 57.6847 32.4826 57.4511C32.5074 57.4071 32.5478 57.2326 32.433 57.2718C32.327 57.316 32.2499 57.4116 32.1691 57.4934C32.0951 57.5732 32.0124 57.6481 31.9296 57.723C31.7573 57.8746 31.5937 58.0313 31.4088 58.1641C31.2375 58.2932 31.0537 58.4035 30.8642 58.4931C30.6815 58.5808 30.4134 58.707 30.2051 58.6756C29.9744 58.643 29.9789 58.4191 30.0086 58.2327C30.0504 57.9836 30.1236 57.7407 30.1968 57.4977C30.361 56.9698 30.5733 56.4285 30.8352 55.9329C30.855 55.8977 30.8287 55.8827 30.8088 55.9179L30.8039 55.9267Z" fill="#5E4345"/>
<path d="M33.306 54.8997C33.0589 55.2353 32.768 55.546 32.4538 55.826C32.371 55.9009 32.241 56.0185 32.1151 55.9643C32.0575 55.9431 32.0285 55.8918 32.0201 55.8347C32.0186 55.7758 32.0483 55.723 32.0243 55.6629C32.025 55.6924 32.0239 55.7149 32.0247 55.7444C32.0327 55.7199 32.0407 55.6954 32.0487 55.671C32.0567 55.6465 32.0658 55.5994 32.0345 55.5932C32.0014 55.5801 31.9628 55.6279 31.9461 55.6474C31.9293 55.6669 31.9076 55.6952 31.8996 55.7197C31.8828 55.7392 31.8946 55.7285 31.9213 55.6914C31.9095 55.7021 31.8927 55.7216 31.8828 55.7392C31.8393 55.7957 31.8065 55.8642 31.7894 55.9358C31.7574 56.0337 31.7311 56.1523 31.7735 56.2519C31.8727 56.4768 32.1328 56.3751 32.2804 56.2674C32.4977 56.1181 32.6872 55.8949 32.86 55.6912C33.0495 55.468 33.2176 55.221 33.3701 54.971C33.3869 54.9515 33.4197 54.883 33.3895 54.8543C33.3613 54.8324 33.3209 54.8733 33.3041 54.8928L33.306 54.8997Z" fill="#5E4345"/>
<path d="M34.3182 69.2571C33.8485 69.9365 33.4421 70.6577 33.1021 71.4051C32.8715 71.9069 32.5154 72.5696 32.6739 73.1418C32.8629 73.8243 33.8633 73.5399 34.3137 73.378C34.9888 73.1465 35.5867 72.7434 36.1419 72.2927C36.8714 71.6973 37.5318 71.0393 38.1301 70.317C38.1518 70.2887 38.1701 70.1945 38.1129 70.2549C37.4692 70.8934 36.8031 71.5306 36.0866 72.0928C35.4429 72.5977 34.7271 73.0557 33.9212 73.2418C33.5604 73.3268 33.0977 73.4178 32.82 73.1088C32.5151 72.7553 32.7724 72.2164 32.9237 71.8553C33.2991 70.9422 33.7692 70.0772 34.3201 69.264C34.327 69.2621 34.3144 69.2433 34.3182 69.2571Z" fill="#5E4345"/>
<path d="M82.5005 57.1012C82.2649 57.4782 82.0148 57.8295 81.6555 58.1072C81.3997 58.3042 80.7712 58.7306 80.4858 58.394C80.3645 58.2495 80.311 58.0564 80.1946 57.9031C80.1034 57.7873 80.0004 57.6822 79.8787 57.5897C79.6158 57.3879 79.2966 57.2759 78.97 57.2179C77.4126 56.9589 76.1925 58.2914 75.2873 59.3735C74.6151 60.1757 73.9963 61.0374 73.5335 61.9821C73.463 62.1278 73.5835 62.1092 73.6518 62.0087C74.1909 61.2062 74.7181 60.4144 75.3312 59.6656C75.8673 59.0124 76.4526 58.3233 77.2111 57.9128C77.8793 57.5496 78.6955 57.4275 79.4027 57.7661C79.7159 57.9095 79.9815 58.1477 80.1517 58.442C80.2368 58.5892 80.3013 58.742 80.4791 58.7967C80.6217 58.8314 80.7678 58.7984 80.9013 58.7466C81.5931 58.4956 82.323 57.8481 82.5005 57.1012Z" fill="#5E4345"/>
<path d="M63.1655 58.9746C61.5325 59.8574 60.0816 61.0237 58.4669 61.946C57.663 62.4061 56.8049 62.7774 55.8953 62.9625C55.6493 63.0083 55.3827 63.0599 55.1675 62.8968C54.966 62.7299 54.879 62.4423 54.9209 62.1931C54.9559 61.9459 55.0916 61.7153 55.2086 61.4974C55.3405 61.253 55.4636 61.0036 55.5799 60.7562C56.1006 59.647 56.4515 58.4587 56.5179 57.2304C56.5194 57.1557 56.4405 57.2444 56.4275 57.2777C56.1292 58.496 55.7547 59.7057 55.226 60.8394C54.9984 61.3255 54.6701 61.7949 54.5666 62.3284C54.4854 62.7294 54.5688 63.2705 54.9853 63.4669C55.3844 63.6533 55.9938 63.4251 56.3901 63.3079C56.8687 63.168 57.3389 62.9709 57.7859 62.7432C58.6749 62.2966 59.4982 61.7197 60.2952 61.1279C61.2398 60.4284 62.1416 59.6813 63.1453 59.0619C63.1709 59.0474 63.2097 58.9475 63.1518 58.9784L63.1655 58.9746Z" fill="#5E4345"/>
<path d="M45.5729 29.4791C44.4736 30.8747 43.6079 32.4728 43.0733 34.1723C42.8831 34.7668 42.5363 35.6496 42.8668 36.2559C43.2572 36.9717 44.0859 36.4675 44.5241 36.1012C44.6324 36.0119 44.7825 35.5398 44.5152 35.6955C44.1014 35.9362 43.3859 36.2086 43.2095 35.5449C43.1312 35.2622 43.2028 34.9603 43.2664 34.6829C43.3453 34.327 43.4486 33.9793 43.5518 33.6315C44.0045 32.17 44.7101 30.7944 45.629 29.575C45.6892 29.4989 45.6647 29.3572 45.5709 29.4723L45.5729 29.4791Z" fill="#5E4345"/>
<path d="M53.4834 37.5986C53.0399 38.0258 52.5839 38.4342 52.1793 38.8951C51.7916 39.3365 51.4358 39.8136 51.1064 40.3056C50.5693 41.115 49.9642 42.1065 50.1068 43.1285C50.129 43.3153 50.2016 43.5773 50.4255 43.6118C50.6112 43.642 50.7973 43.4865 50.9418 43.3945C51.3793 43.1324 51.8148 42.8633 52.2907 42.687C52.5184 42.6016 52.7656 42.5332 53.0036 42.5118C53.1191 42.5021 53.2435 42.4973 53.3548 42.5259C53.5288 42.5668 53.5898 42.6538 53.6063 42.8199C53.656 43.2664 53.3213 43.6857 53.2565 44.1193C53.1899 44.546 53.3213 45.0737 53.8381 45.0717C54.125 45.0664 54.3942 44.9177 54.6417 44.7972C54.9521 44.637 55.2343 44.4549 55.5158 44.2433C55.6073 44.1735 55.7159 44.032 55.7129 43.9141C55.7136 43.81 55.6621 43.7574 55.5618 43.8223C55.1507 44.0995 54.6469 44.4691 54.153 44.5539C53.6023 44.6471 53.5132 44.0853 53.6375 43.6798C53.7476 43.3301 53.9428 42.994 53.9121 42.6165C53.9041 42.5074 53.8617 42.2742 53.7495 42.2161C53.5973 42.147 53.2865 42.2256 53.1209 42.2418C52.2715 42.3508 51.5615 42.8295 50.8323 43.2393C50.7114 43.3099 50.5787 43.3912 50.4483 43.2937C50.3353 43.2062 50.3032 43.0369 50.2895 42.9072C50.2531 42.6426 50.2805 42.3678 50.343 42.1129C50.4649 41.619 50.702 41.1673 50.9586 40.7325C51.2983 40.1708 51.673 39.6291 52.0848 39.1142C52.5084 38.5887 52.9576 38.0486 53.4785 37.6074C53.4785 37.6074 53.4815 37.5918 53.4765 37.6005L53.4834 37.5986Z" fill="#5E4345"/>
<path d="M84.8593 66.3128C85.2604 65.7861 85.6985 65.2862 86.0821 64.7495C86.4656 64.2127 86.8229 63.661 87.1694 63.0974C87.516 62.5338 87.8469 61.9671 88.1583 61.3835C88.4568 60.8332 88.7633 60.2584 88.9584 59.6551C88.9694 59.6149 88.9321 59.6401 88.9222 59.6577C88.5661 60.1869 88.2683 60.7666 87.9561 61.3207C87.6458 61.8817 87.318 62.4327 86.9832 62.9856C86.6584 63.521 86.3229 64.0444 85.9806 64.5697C85.6016 65.1497 85.2578 65.7497 84.8487 66.301C84.8487 66.301 84.8525 66.3147 84.8506 66.3079L84.8593 66.3128Z" fill="#5E4345"/>
<path d="M83.804 66.4789C84.0885 66.1181 84.3836 65.7691 84.6486 65.3914C84.782 65.206 84.8998 65.0175 85.0138 64.8152C85.1129 64.6393 85.2425 64.4401 85.2703 64.2469C85.2836 64.1615 85.1933 64.2088 85.1666 64.2459C85.0499 64.4118 84.9741 64.6184 84.8749 64.7943C84.7709 64.979 84.6512 65.1606 84.5295 65.3353C84.2852 65.7073 84.0301 66.0674 83.7769 66.4345C83.7571 66.4696 83.7587 66.5286 83.7953 66.4739L83.804 66.4789Z" fill="#5E4345"/>
<path d="M79.4278 67.4385C80.6049 66.1104 81.6011 64.6098 82.3192 62.9857C82.3977 62.8155 82.2528 62.826 82.1765 62.951C81.2684 64.4495 80.371 65.9599 79.4171 67.4266C79.4072 67.4442 79.413 67.4648 79.4297 67.4453L79.4278 67.4385Z" fill="#5E4345"/>
<path d="M77.6204 67.798C78.0623 67.3119 78.4535 66.8028 78.8264 66.2542C79.0143 65.972 79.1935 65.6848 79.3639 65.3927C79.5195 65.1269 79.7173 64.8272 79.7939 64.5165C79.8171 64.4136 79.7397 64.4276 79.6894 64.4861C79.4881 64.72 79.3421 65.0202 79.1846 65.2791C79.0222 65.5467 78.8598 65.8144 78.6905 66.0839C78.3421 66.6406 77.978 67.1943 77.6051 67.7429C77.5883 67.7624 77.5781 67.832 77.6185 67.7912L77.6204 67.798Z" fill="#5E4345"/>
<path d="M74.9686 68.2578C75.6774 67.4009 76.282 66.4614 76.8886 65.5289C77.51 64.57 78.1402 63.6161 78.6758 62.6141C78.7105 62.5526 78.6685 62.5345 78.6319 62.5892C78.0116 63.5255 77.4371 64.4937 76.8168 65.43C76.1965 66.3663 75.5412 67.2827 74.956 68.239C74.9461 68.2566 74.9537 68.2842 74.9754 68.2559L74.9686 68.2578Z" fill="#5E4345"/>
<path d="M73.5065 68.2099C74.1756 67.1561 74.868 66.133 75.4932 65.0543C75.7993 64.5316 76.0966 64.0038 76.3871 63.478C76.6826 62.9434 76.9967 62.3962 77.2219 61.8217C77.2787 61.6797 77.1632 61.6895 77.1018 61.7881C76.43 62.8055 75.9151 63.9354 75.3154 64.9996C74.7158 66.0638 74.1394 67.1587 73.5046 68.203L73.5065 68.2099Z" fill="#5E4345"/>
<path d="M59.5858 71.4044C60.6324 69.9789 61.6809 68.5602 62.6641 67.0929C63.1567 66.3626 63.6405 65.6274 64.1243 64.8922C64.6161 64.1325 65.1423 63.3632 65.562 62.5567C65.6016 62.4863 65.5749 62.3898 65.4998 62.4923C64.9938 63.1742 64.5501 63.9206 64.0811 64.6295C63.5855 65.3754 63.1006 66.1332 62.5962 66.8742C61.5931 68.3767 60.5988 69.8843 59.5607 71.3668C59.5389 71.3951 59.5473 71.4522 59.579 71.4063L59.5858 71.4044Z" fill="#5E4345"/>
<path d="M54.7432 73.1613C55.5713 72.1748 56.3644 71.1684 57.1448 70.1432C57.536 69.634 57.9203 69.1267 58.3115 68.6176C58.5071 68.363 58.7008 68.1015 58.8876 67.8419C59.0744 67.5824 59.2944 67.3359 59.4462 67.0563C59.4908 66.9772 59.5018 66.8034 59.3717 66.9211C59.1609 67.1205 58.9878 67.3763 58.809 67.6114C58.6115 67.859 58.4159 68.1136 58.2203 68.3682C57.8192 68.895 57.4249 69.4198 57.0288 69.9378C56.2384 70.9806 55.4607 72.0422 54.7161 73.1169C54.6894 73.1539 54.6928 73.2198 54.7432 73.1613Z" fill="#5E4345"/>
<path d="M51.2793 73.972C52.0872 72.9392 53.0607 72.0238 53.819 70.9453C53.8407 70.917 53.8552 70.8091 53.798 70.8695C53.3484 71.328 52.9424 71.8636 52.5424 72.3677C52.1207 72.9002 51.7204 73.4564 51.2773 73.9651C51.2773 73.9651 51.2812 73.9789 51.2793 73.972Z" fill="#5E4345"/>
<path d="M43.3624 77.7605C43.4649 77.3832 43.7631 77.1522 44.0293 76.8855C44.2314 76.6811 44.4315 76.4698 44.623 76.2535C45.0355 75.7681 45.4198 75.2608 45.7847 74.7367C46.1328 74.232 46.4702 73.7155 46.7919 73.1958C46.9543 72.9282 47.1148 72.6536 47.2704 72.3879C47.4259 72.1221 47.604 71.8575 47.7156 71.5668C47.7675 71.4337 47.6778 71.3769 47.5821 71.485C47.3808 71.7189 47.2398 72.0104 47.0754 72.2711C46.8913 72.5671 46.7072 72.863 46.5299 73.1571C46.1666 73.7402 45.8033 74.3233 45.4048 74.8864C45.0232 75.43 44.6183 75.943 44.1977 76.4529C43.866 76.8565 43.4199 77.2473 43.3338 77.7907C43.3277 77.8221 43.3613 77.7831 43.3662 77.7743L43.3624 77.7605Z" fill="#5E4345"/>
<path d="M36.7691 79.8684C37.4625 78.6892 38.2582 77.5855 38.9974 76.4381C39.0241 76.401 39.0039 76.3546 38.9654 76.4024C38.08 77.4493 37.3904 78.6423 36.7427 79.8535C36.7229 79.8887 36.7561 79.9017 36.7691 79.8684Z" fill="#5E4345"/>
<path d="M32.6551 81.6683C33.473 80.7515 34.2771 79.8385 35.0347 78.8641C35.7824 77.9074 36.5255 76.9073 37.1183 75.845C37.153 75.7834 37.1251 75.7095 37.0648 75.7856C36.2958 76.7186 35.6046 77.7191 34.8813 78.6839C34.1413 79.6683 33.405 80.6664 32.6329 81.6151C32.6063 81.6521 32.6166 81.7161 32.662 81.6664L32.6551 81.6683Z" fill="#5E4345"/>
<path d="M94.5495 55.0485C95.1853 53.7145 96.1278 52.4737 97.426 51.743C98.5895 51.0868 100.024 50.9566 101.279 51.4555C101.951 51.722 102.575 52.158 103.047 52.7174C103.16 52.857 103.399 52.4643 103.337 52.3478C102.654 51.0301 101.137 50.463 99.7141 50.5304C98.1152 50.602 96.7355 51.5186 95.7316 52.7244C95.1501 53.4273 94.7266 54.2201 94.4309 55.074C94.3909 55.1964 94.5198 55.1013 94.5476 55.0417L94.5495 55.0485Z" fill="#5E4345"/>
</g>
<defs>
<clipPath id="clip0_565_2305">
<rect width="97" height="67" fill="white" transform="translate(0 25.8887) rotate(-15.4795)"/>
</clipPath>
</defs>
</svg>
