<svg width="60" height="52" viewBox="0 0 60 52" fill="none" xmlns="http://www.w3.org/2000/svg">
<g clip-path="url(#clip0_340_518)">
<path d="M49.9795 29.8846C49.5255 30.2677 48.9482 30.4953 48.3896 30.6798C47.7934 30.8789 47.1812 31.0165 46.5796 31.2017C45.9998 31.3824 45.4336 31.5978 44.9366 31.9617C44.6764 32.1541 44.4508 32.3849 44.2558 32.6438C44.0366 32.9319 43.7751 33.3241 43.3541 33.264C42.9836 33.2123 42.8981 32.7274 42.5306 32.6427C42.2197 32.5719 41.9172 32.7568 41.6911 32.956C41.3703 33.2357 41.1226 33.6026 40.8832 33.9503C40.6376 34.3124 40.4076 34.6844 40.1932 35.0663C39.7604 35.8396 39.3683 36.6369 38.9198 37.4004C38.4886 38.1372 38.0033 38.887 37.369 39.4554C37.1154 39.6852 36.7036 39.8925 36.3919 39.6268C36.1047 39.3834 36.3643 38.9761 36.4971 38.7294C36.9274 37.9292 37.5332 37.2363 37.973 36.4403C38.3202 35.8118 38.7949 34.8111 38.1887 34.1813C37.6577 33.6339 36.8642 33.7102 36.2326 33.9908C35.8524 34.158 35.495 34.3841 35.133 34.588C34.7202 34.8237 34.3088 35.0627 33.8961 35.2983C33.0719 35.773 32.2416 36.2421 31.4248 36.7258C31.0374 36.9556 30.656 37.191 30.3152 37.4904C29.9889 37.7762 29.6984 38.1038 29.3375 38.3512C28.6705 38.8049 27.8411 38.9509 27.0894 39.2062C25.584 39.7216 24.1873 40.5177 22.8963 41.4441C21.584 42.3868 20.3712 43.4543 19.193 44.5602C18.9064 44.8266 18.6259 45.0986 18.3406 45.3685C18.2773 45.4289 18.2225 45.5617 18.2526 45.6496C18.2888 45.7432 18.3738 45.6983 18.4247 45.6467C19.6022 44.5491 20.8109 43.4712 22.0778 42.4824C23.3302 41.5071 24.6742 40.6359 26.1393 40.0165C26.5016 39.8642 26.8693 39.7257 27.2451 39.6081C27.6263 39.4843 28.0136 39.3861 28.3929 39.2471C28.777 39.1103 29.1532 38.9327 29.4779 38.6833C29.8274 38.4165 30.1152 38.0819 30.4558 37.8025C30.7999 37.5217 31.1771 37.2959 31.5604 37.0757C31.98 36.8375 32.3949 36.5971 32.8145 36.3588C33.6455 35.8815 34.4765 35.4042 35.311 34.9255C35.9281 34.5669 36.6808 34.0602 37.429 34.3042C37.7309 34.4024 38.0245 34.6114 38.12 34.9291C38.2315 35.3082 38.0037 35.7471 37.8389 36.0739C37.4311 36.8813 36.8213 37.5638 36.3666 38.3416C36.1655 38.6865 35.9327 39.0715 35.9025 39.4817C35.8733 39.8636 36.0678 40.1827 36.4545 40.256C36.8611 40.3296 37.2159 40.0766 37.4957 39.8128C37.8098 39.5158 38.0881 39.1769 38.3473 38.8295C38.8787 38.1176 39.3075 37.3338 39.7248 36.5506C40.1323 35.7832 40.5276 35.0045 41.0073 34.2807C41.2233 33.954 41.4485 33.5799 41.7569 33.3289C41.9938 33.1375 42.321 33.0267 42.5611 33.2804C42.6926 33.4167 42.7795 33.5902 42.9489 33.6919C43.0931 33.7795 43.2774 33.7878 43.4361 33.7502C43.8534 33.6483 44.1044 33.3001 44.3471 32.971C44.7138 32.4743 45.2052 32.1366 45.7628 31.8887C46.3431 31.628 46.9561 31.4622 47.5598 31.2722C48.1553 31.0814 48.7809 30.8868 49.3024 30.5254C49.5474 30.3548 49.7788 30.1695 49.9866 29.9536C50.0031 29.9352 50.0228 29.8439 49.9816 29.8798L49.9795 29.8846Z" fill="white"/>
<path d="M49.9345 34.2777C49.79 34.2301 49.6444 34.2506 49.4948 34.2608C49.3185 34.2733 49.1428 34.2975 48.9698 34.3287C48.6477 34.3817 48.3303 34.4569 48.0149 34.5472C47.3689 34.7297 46.7349 34.9634 46.1029 35.1922C44.672 35.7067 43.2182 36.1623 41.7485 36.5563C41.3489 36.6633 40.9501 36.7621 40.5512 36.8608C40.3432 36.9135 40.1339 36.9627 39.9246 37.0119C39.7153 37.0611 39.4992 37.093 39.2986 37.1747C39.2027 37.2119 39.1404 37.3356 39.122 37.4304C39.1079 37.4956 39.1008 37.6299 39.1985 37.6279C39.3774 37.6223 39.5492 37.5677 39.7216 37.5248C39.9159 37.4774 40.1068 37.4314 40.3011 37.384C40.6596 37.293 41.0167 37.1984 41.3725 37.1004C42.0992 36.9026 42.8226 36.6861 43.5406 36.4558C44.2518 36.2281 44.9589 35.99 45.6593 35.7346C46.3153 35.4965 46.9618 35.2341 47.6231 35.0098C47.9914 34.883 48.3624 34.7632 48.738 34.6655C48.9309 34.6147 49.1266 34.5708 49.3235 34.5303C49.5171 34.4912 49.7105 34.4721 49.8954 34.4004C49.9194 34.3911 49.9802 34.2839 49.9386 34.2681L49.9345 34.2777Z" fill="white"/>
<path d="M27.3548 11.8941C27.4541 11.1543 27.6497 10.4291 28.0059 9.77316C28.3538 9.13634 28.844 8.57193 29.4308 8.14536C30.6127 7.29304 32.1595 7.01658 33.5882 7.22814C35.2891 7.48167 36.7221 8.45657 37.9984 9.57585C39.3405 10.7533 40.5767 12.0435 41.8459 13.297C43.0906 14.5281 44.3656 15.7355 45.7598 16.7932C47.12 17.8242 48.6108 18.6333 50.0905 19.4745C51.5307 20.2952 52.9773 21.1732 54.1327 22.3871C55.1933 23.4983 56.0494 24.9358 56.0618 26.5128C56.0721 27.983 55.5014 29.4473 54.6417 30.6131C53.7917 31.7631 52.6516 32.6829 51.3433 33.2495C51.02 33.3907 50.6851 33.5124 50.3505 33.6142C50.2266 33.6502 50.1506 33.7793 50.1136 33.8972C50.0996 33.9425 50.0549 34.1829 50.1767 34.1517C53.1275 33.403 55.4646 30.8162 56.2067 27.8831C56.4194 27.0397 56.5054 26.1537 56.3447 25.2915C56.2012 24.5144 55.8757 23.7759 55.4506 23.1157C54.5336 21.6939 53.175 20.6265 51.7653 19.7421C50.2774 18.8084 48.6955 18.0387 47.2235 17.0749C45.6781 16.0639 44.2857 14.8381 42.9559 13.5603C41.6309 12.2846 40.3567 10.9573 39.0117 9.70127C37.6972 8.47327 36.2651 7.26692 34.4884 6.82763C33.0252 6.46606 31.4282 6.60262 30.0949 7.31834C28.7266 8.05558 27.7338 9.41637 27.3539 10.9262C27.2682 11.2742 27.2324 11.6188 27.2497 11.9786C27.2565 12.0876 27.3559 11.9375 27.3609 11.8997L27.3548 11.8941Z" fill="white"/>
<path d="M27.5521 11.7022C25.238 14.1247 23.2377 16.8799 21.4501 19.716C19.6472 22.574 18.0803 25.5836 16.7694 28.7052C15.4571 31.8234 14.4064 35.0474 13.6154 38.3422C13.2154 40.0033 12.8849 41.6812 12.6295 43.37C12.3891 44.9652 12.1812 46.5837 12.2528 48.2016C12.2698 48.6014 12.3067 49.0015 12.3607 49.395C12.4148 49.7685 12.4653 50.1633 12.594 50.5158C12.7013 50.813 12.9044 51.073 13.2439 51.065C13.5403 51.0577 13.8094 50.8579 14.0271 50.6779C15.3349 49.6015 16.4986 48.3259 17.482 46.9409C17.7241 46.6001 17.9505 46.2494 18.1721 45.8966C18.215 45.8242 18.3112 45.6355 18.2394 45.5517C18.1662 45.4645 18.0608 45.609 18.0262 45.6622C17.1411 47.057 16.0887 48.3453 14.8837 49.4735C14.595 49.7447 14.3001 50.0103 13.9904 50.2578C13.7679 50.4356 13.4524 50.6376 13.1653 50.4659C12.8627 50.2843 12.8153 49.8165 12.7526 49.5021C12.6787 49.1283 12.6267 48.7501 12.5931 48.3686C12.447 46.7717 12.6261 45.1603 12.85 43.5834C13.0803 41.9721 13.3727 40.3687 13.7299 38.7799C14.4471 35.5895 15.4329 32.4623 16.6557 29.4386C17.8827 26.4052 19.3535 23.4727 21.048 20.6806C22.7425 17.8885 24.6661 15.2507 26.7609 12.7498C27.0253 12.4362 27.2849 12.1205 27.5494 11.8069C27.5714 11.7824 27.6045 11.6341 27.546 11.6966L27.5521 11.7022Z" fill="white"/>
<path d="M36.0318 38.4318C35.2511 38.6426 34.4736 38.872 33.7089 39.1444C32.9339 39.4207 32.1757 39.7304 31.4208 40.0586C29.9008 40.7192 28.4211 41.4637 26.9712 42.2645C25.5178 43.0666 24.0927 43.9215 22.6839 44.798C21.2435 45.6946 19.822 46.6198 18.4005 47.545C17.6987 48.0002 16.9983 48.4588 16.2951 48.9105C15.9391 49.14 15.5865 49.3683 15.2304 49.5979C15.0603 49.7076 14.8868 49.8187 14.7166 49.9284C14.5376 50.0456 14.3639 50.1766 14.1835 50.2903C14.001 50.4088 13.8252 50.5446 13.6515 50.6757C13.5966 50.7169 13.5544 50.801 13.5532 50.8692C13.5522 50.9174 13.5756 50.988 13.6393 50.9593C14.3705 50.6004 15.0627 50.1609 15.7479 49.7241C16.4511 49.2724 17.1508 48.822 17.8513 48.3634C19.2446 47.4571 20.6366 46.5473 22.0401 45.657C23.4559 44.7579 24.8866 43.8769 26.3456 43.0487C27.7855 42.232 29.251 41.461 30.7542 40.7672C32.2539 40.0746 33.7948 39.4577 35.355 38.9211C35.5563 38.8511 35.7555 38.7859 35.9581 38.7193C36.0382 38.6923 36.1201 38.4056 36.0318 38.4318Z" fill="white"/>
<path d="M28.1174 11.7582C28.0315 12.1461 28.2112 12.5188 28.541 12.7297C28.9082 12.966 29.3248 12.9639 29.7365 12.8881C30.2289 12.797 30.7114 12.65 31.2181 12.7485C31.7249 12.847 32.1848 13.0992 32.6021 13.4037C33.0424 13.7272 33.4414 14.1065 33.8356 14.4838C34.2481 14.8778 34.6607 15.2718 35.0842 15.6536C35.9334 16.4124 36.8654 17.0395 37.9531 17.3871C39.0168 17.7241 40.1383 17.9152 41.1477 18.4167C41.9971 18.8407 42.6441 19.5145 43.1597 20.3069C44.1092 21.7719 44.7285 23.584 46.2584 24.5651C47.1227 25.1189 48.3185 25.4206 48.7704 26.4449C48.9823 26.9206 48.8852 27.4324 48.7985 27.9202C48.7182 28.3736 48.6521 28.8535 48.802 29.3014C48.8696 29.5064 48.9743 29.665 49.1455 29.8019C49.2304 29.8686 49.3994 29.5322 49.3316 29.4589C48.6429 28.6977 49.156 27.6741 49.1116 26.7869C49.0581 25.7238 48.1258 25.1367 47.2758 24.701C46.8083 24.4597 46.3455 24.2206 45.947 23.873C45.6156 23.5869 45.3318 23.2506 45.0727 22.8968C44.5509 22.1905 44.1438 21.4039 43.6818 20.6584C43.2374 19.9381 42.7362 19.2238 42.0678 18.6978C41.2003 18.0138 40.1162 17.7565 39.078 17.4653C38.5382 17.3119 38.0087 17.1345 37.5003 16.8892C36.9952 16.6426 36.5412 16.3244 36.1106 15.9652C35.2387 15.2392 34.4775 14.4025 33.6572 13.6165C32.9251 12.916 32.0513 12.1548 30.9864 12.1808C30.498 12.1907 30.0358 12.3698 29.5534 12.4053C29.3504 12.4201 29.1573 12.3993 28.9659 12.322C28.8065 12.2563 28.6235 12.1598 28.5152 12.0225C28.4156 11.8977 28.3505 11.7397 28.3714 11.5802C28.3814 11.5045 28.3311 11.4762 28.2714 11.5153C28.1946 11.561 28.1494 11.6781 28.1338 11.7598L28.1174 11.7582Z" fill="white"/>
<path d="M32.2471 21.1393C32.2663 21.0362 32.2707 20.8951 32.3361 20.8099C32.394 20.7357 32.5015 20.6981 32.5956 20.7174C32.6652 20.7343 32.7522 20.7962 32.7735 20.8716C32.7968 20.9622 32.64 21.0149 32.5681 21.0428C32.1517 21.2081 31.6969 21.3046 31.2571 21.3993C30.8748 21.4796 30.4634 21.5155 30.1279 21.7371C29.7924 21.9587 29.6183 22.3529 29.6633 22.7538C29.707 23.1513 29.8764 23.5478 30.02 23.9185C30.0965 24.116 30.1867 24.3082 30.2872 24.4964C30.3796 24.6638 30.4814 24.8554 30.6625 24.9367C30.971 25.0722 31.3741 24.9439 31.6645 24.8195C31.9653 24.691 32.2403 24.5167 32.5181 24.3494C32.8274 24.1618 33.1565 23.9745 33.5162 23.9069C33.6037 23.8889 33.6974 23.8766 33.7888 23.889C33.8345 23.8952 33.8829 23.9083 33.9237 23.9323C33.9394 23.9422 33.955 23.9521 33.9686 23.9667C33.9808 23.9779 34.0029 24.0451 34.0093 24.0108C34.017 23.9799 34.0024 24.0134 33.9826 24.0131C33.9546 24.012 33.9251 24.0274 33.8937 24.0276C33.8357 24.0302 33.7777 24.0128 33.7253 23.9893C33.6096 23.9345 33.516 23.8353 33.421 23.7526C33.3551 23.6944 33.2098 23.9698 33.2667 24.0354C33.4056 24.2008 33.5936 24.371 33.8232 24.3538C34.0214 24.3368 34.1593 24.1439 34.207 23.9621C34.2554 23.772 34.1835 23.5966 33.9865 23.5454C33.8106 23.498 33.6253 23.5379 33.4556 23.5877C32.7295 23.7973 32.1655 24.3744 31.4314 24.5631C31.2337 24.6118 30.9752 24.6562 30.7881 24.5494C30.5902 24.4348 30.4768 24.132 30.3853 23.9364C30.2817 23.7096 30.1917 23.4775 30.1066 23.2475C30.0234 23.0327 29.9361 22.8075 29.9022 22.5776C29.8684 22.3277 29.9393 22.1448 30.152 22.0027C30.34 21.8781 30.5699 21.8209 30.7874 21.7725C31.2881 21.6622 31.7827 21.5463 32.268 21.3862C32.4911 21.3117 32.7381 21.2479 32.8693 21.0377C32.9715 20.8746 33.0115 20.632 32.8279 20.5039C32.4514 20.2433 32.0017 20.8717 32.1729 21.2118C32.1924 21.2521 32.2409 21.1536 32.2437 21.1406L32.2471 21.1393Z" fill="white"/>
<path d="M31.6779 21.2961C31.2927 20.7998 31.1849 20.0845 31.3898 19.4951C31.6162 18.8496 32.1857 18.358 32.8001 18.1041C34.0514 17.5835 35.4198 18.3204 36.3276 19.2C37.2218 20.0648 37.841 21.2872 37.829 22.547C37.8191 23.782 37.2241 25.0007 36.1556 25.6377C35.4993 26.0274 34.7197 26.0784 34.0212 25.7593C33.3465 25.4509 32.8515 24.8338 32.6303 24.1306C32.5828 23.9777 32.3751 24.2852 32.4099 24.3953C32.6211 25.0625 33.0582 25.6622 33.6711 26.0145C34.2888 26.3689 35.0478 26.4374 35.7073 26.178C37.0126 25.6643 37.8302 24.2479 38.0144 22.8936C38.2008 21.5145 37.698 20.1354 36.768 19.117C35.8549 18.112 34.3811 17.2247 33.011 17.7236C31.7622 18.1795 30.6322 19.7249 31.3011 21.0755C31.3711 21.2157 31.4686 21.3453 31.5791 21.4578C31.6246 21.504 31.7104 21.3393 31.6779 21.2961Z" fill="white"/>
<path d="M32.8673 21.1423C33.1697 20.9573 33.442 20.6845 33.5285 20.3283C33.6051 20.0077 33.5303 19.6622 33.2592 19.4604C33.0024 19.265 32.6631 19.253 32.3767 19.3879C32.0697 19.5307 31.8477 19.8319 31.7751 20.1628C31.7369 20.3489 31.7458 20.5447 31.8122 20.7262C31.8659 20.8648 31.979 21.0959 32.1359 21.1347C32.2102 21.1538 32.2542 21.0132 32.2306 20.9626C32.2105 20.9106 32.1649 20.8844 32.1303 20.846C32.087 20.7951 32.047 20.7428 32.016 20.6831C31.9567 20.5706 31.9234 20.444 31.9216 20.3173C31.9227 20.0459 32.0713 19.7891 32.3004 19.6485C32.5158 19.5133 32.7878 19.4836 33.022 19.6001C33.2609 19.7187 33.4013 19.9592 33.3755 20.2282C33.348 20.5536 33.0923 20.7881 32.8317 20.9488C32.7844 20.9791 32.7505 21.0441 32.7617 21.1035C32.7702 21.156 32.8144 21.1787 32.8631 21.1518L32.8673 21.1423Z" fill="white"/>
<path d="M33.6743 23.766C33.9364 23.6804 34.2311 23.638 34.496 23.7425C34.7433 23.842 34.9514 24.0642 34.9508 24.3473C34.9483 24.6152 34.7659 24.8254 34.5275 24.9217C34.2605 25.0251 33.9527 24.993 33.712 24.8392C33.5855 24.7567 33.4805 24.638 33.4165 24.5034C33.3889 24.4424 33.3682 24.3787 33.3543 24.3123C33.3385 24.2308 33.3417 24.1578 33.3087 24.0829C33.2697 24.0024 33.176 24.218 33.1945 24.2149C33.094 24.2299 33.2462 24.6331 33.2719 24.679C33.3433 24.8226 33.4483 24.9413 33.5775 25.0307C33.8493 25.2243 34.2226 25.2629 34.5281 25.1366C34.8302 25.0116 35.0566 24.7526 35.1156 24.4269C35.1711 24.1026 35.0413 23.7982 34.7735 23.6151C34.454 23.4002 34.0468 23.4265 33.7024 23.5439C33.6476 23.5652 33.611 23.6232 33.6093 23.6796C33.6069 23.7244 33.6332 23.7819 33.6893 23.7642L33.6743 23.766Z" fill="white"/>
<path d="M32.8075 20.6951C32.8566 20.6083 32.905 20.5298 32.9445 20.4388C32.9841 20.3478 33.0202 20.2581 33.0502 20.1628C33.1164 19.9778 33.1778 19.7906 33.2085 19.5954C33.2149 19.5611 33.1873 19.5917 33.1811 19.606C33.1149 19.791 33.0604 19.9755 32.9942 20.1605C32.9629 20.2524 32.9302 20.3408 32.894 20.4305C32.86 20.5154 32.8355 20.6046 32.8062 20.6916C32.8075 20.6951 32.8089 20.6985 32.8062 20.6916L32.8075 20.6951Z" fill="white"/>
<path d="M32.649 20.6127C32.6634 20.5075 32.6907 20.4053 32.7038 20.2967C32.7181 20.1915 32.7325 20.0863 32.7435 19.9824C32.7537 19.8868 32.7605 19.7926 32.7591 19.6975C32.757 19.6106 32.7556 19.5156 32.7199 19.4337C32.7079 19.4026 32.6643 19.4832 32.6635 19.4914C32.6478 19.5932 32.654 19.6904 32.6615 19.7911C32.665 19.8814 32.6568 19.9722 32.6487 20.063C32.6419 20.1573 32.6351 20.2515 32.6317 20.3445C32.6249 20.4388 32.6332 20.5312 32.6298 20.6241C32.6297 20.6441 32.6503 20.6162 32.6511 20.6079L32.649 20.6127Z" fill="white"/>
<path d="M32.4107 20.6457C32.4083 20.5989 32.414 20.5528 32.4082 20.5072C32.4037 20.4652 32.3958 20.4244 32.3845 20.385C32.3618 20.3061 32.3357 20.2285 32.3062 20.1523C32.278 20.0796 32.2382 20.0073 32.2031 19.9372C32.1674 19.8754 32.1358 19.8039 32.139 19.731C32.1378 19.7075 32.1256 19.6963 32.1064 19.7078C32.0837 19.7205 32.0658 19.7554 32.0635 19.7801C32.0988 19.7187 32.1037 19.7008 32.0809 19.7336C32.0788 19.7383 32.0768 19.7431 32.0713 19.7492C32.065 19.7636 32.0622 19.7767 32.0594 19.7897C32.0558 19.811 32.057 19.8345 32.0582 19.8579C32.0634 19.8917 32.0803 19.925 32.0958 19.9549C32.1356 20.0271 32.1788 20.0981 32.2165 20.1751C32.2556 20.2556 32.2865 20.3353 32.3152 20.4197C32.3313 20.4613 32.3393 20.5021 32.3554 20.5437C32.3621 20.561 32.3688 20.5783 32.3755 20.5956C32.3836 20.6164 32.3971 20.6311 32.4052 20.6519C32.4079 20.6588 32.412 20.6492 32.4141 20.6444L32.4107 20.6457Z" fill="white"/>
<path d="M34.9757 24.0149C34.8446 24.0019 34.7145 23.9607 34.5863 23.9347C34.5146 23.9226 34.4417 23.907 34.37 23.8949C34.2936 23.8807 34.224 23.8838 34.1447 23.8826C34.1413 23.8839 34.1337 23.8948 34.1385 23.897C34.2087 23.9256 34.2706 23.9534 34.347 23.9676C34.4152 23.981 34.4848 23.9979 34.5564 24.01C34.6976 24.039 34.8286 24.052 34.9694 24.0293C34.9729 24.028 34.9805 24.0171 34.9723 24.0162L34.9757 24.0149Z" fill="white"/>
<path d="M34.5168 24.9856C34.4763 24.9216 34.455 24.8462 34.4213 24.7795C34.3889 24.7164 34.3532 24.6545 34.3174 24.5927C34.2458 24.469 34.1743 24.3453 34.087 24.2317C34.0829 24.2213 34.0615 24.2575 34.0656 24.2679C34.1371 24.3916 34.2189 24.5113 34.2939 24.6336C34.3297 24.6955 34.3641 24.7539 34.3999 24.8157C34.4343 24.8741 34.4838 24.9306 34.5127 24.9951L34.5168 24.9856Z" fill="white"/>
<path d="M33.7331 24.9627C33.7425 24.8953 33.7552 24.8266 33.7516 24.7563C33.7507 24.6929 33.7484 24.6261 33.7475 24.5627C33.7395 24.4303 33.7316 24.2979 33.7051 24.1687C33.7011 24.1583 33.6998 24.1548 33.6868 24.1519C33.6868 24.1519 33.6834 24.1532 33.6799 24.1545C33.6554 24.1521 33.6331 24.2165 33.6282 24.2344C33.6127 24.2961 33.6409 24.3689 33.6521 24.4283C33.6647 24.4912 33.6772 24.5541 33.6816 24.6161C33.6893 24.6769 33.695 24.7424 33.696 24.8058C33.699 24.8644 33.7088 24.9203 33.7166 24.9811C33.7193 24.988 33.7255 24.9736 33.7276 24.9688L33.7331 24.9627Z" fill="white"/>
<path d="M36.4475 20.1098C36.6302 20.4494 36.8371 20.7597 36.9561 21.128C37.0738 21.4928 37.1251 21.8793 37.1204 22.2636C37.1125 23.219 36.7357 24.0861 36.2576 24.885C36.25 24.8959 36.2442 24.9419 36.2683 24.9127C36.8 24.1608 37.1685 23.2212 37.2008 22.2883C37.2165 21.8917 37.1626 21.4982 37.0532 21.1143C36.9458 20.7455 36.7814 20.3111 36.4731 20.064C36.4622 20.0562 36.4448 20.1028 36.4475 20.1098Z" fill="white"/>
<path d="M36.679 21.1755C36.7579 21.5115 36.7945 21.8599 36.7832 22.2069C36.7713 22.5422 36.7042 22.867 36.6678 23.1999C36.6641 23.2412 36.7028 23.1784 36.7069 23.1688C36.7953 22.8278 36.8429 22.4627 36.8562 22.1109C36.8681 21.7756 36.8472 21.437 36.7203 21.1196C36.7136 21.1023 36.6749 21.1651 36.6803 21.1789L36.679 21.1755Z" fill="white"/>
<path d="M30.331 24.1127C30.8354 23.7579 31.3956 23.5369 31.9532 23.289C32.5472 23.0231 33.1243 22.7238 33.6811 22.3926C33.6811 22.3926 33.6853 22.383 33.6819 22.3843C33.1054 22.6953 32.5126 22.9847 31.9152 23.252C31.3713 23.4946 30.7825 23.7027 30.3304 24.101C30.327 24.1023 30.3255 24.1188 30.331 24.1127Z" fill="white"/>
<path d="M30.0642 23.3716C30.6568 23.1022 31.2642 22.8708 31.8756 22.6499C32.1761 22.5415 32.478 22.4365 32.7725 22.3224C33.0738 22.2057 33.3854 22.085 33.6584 21.9155C33.6686 21.9115 33.6826 21.8662 33.6607 21.8707C33.3561 21.9688 33.0608 22.1111 32.7629 22.2265C32.4582 22.3445 32.1473 22.457 31.8399 22.5681C31.2299 22.7925 30.6232 23.0155 30.063 23.3481C30.0561 23.3508 30.0526 23.3721 30.0628 23.3681L30.0642 23.3716Z" fill="white"/>
<path d="M29.8 22.5292C29.9717 22.4946 30.1452 22.4951 30.3182 22.4639C30.4912 22.4328 30.6615 22.3947 30.8339 22.3518C31.189 22.2621 31.5469 22.1593 31.8853 22.0162C31.8921 22.0136 31.9046 21.9848 31.8909 21.9901C31.5529 22.0733 31.2162 22.1798 30.8782 22.2629C30.7093 22.3045 30.5403 22.346 30.3665 22.3854C30.1791 22.4302 29.9942 22.5018 29.8035 22.5278C29.8035 22.5278 29.8 22.5292 29.8048 22.5313L29.8 22.5292Z" fill="white"/>
<path d="M30.557 24.4797C30.7317 24.4121 30.9021 24.354 31.0687 24.2656C31.2455 24.1732 31.421 24.0773 31.5938 23.9745C31.7577 23.8791 31.9155 23.7781 32.0767 23.6759C32.2468 23.5661 32.432 23.4545 32.5811 23.3211C32.5935 23.3123 32.6234 23.237 32.5857 23.2516C32.4151 23.3296 32.2585 23.454 32.0994 23.5515C31.9334 23.6517 31.7675 23.7518 31.6002 23.8485C31.4294 23.9465 31.2587 24.0445 31.088 24.1425C30.907 24.2445 30.7374 24.366 30.5564 24.468C30.5564 24.468 30.5523 24.4776 30.5557 24.4762L30.557 24.4797Z" fill="white"/>
<path d="M23.0798 33.4683C23.099 33.3652 23.1068 33.2228 23.177 33.1398C23.2383 33.0642 23.3519 33.0322 23.4453 33.0597C23.5114 33.078 23.6024 33.1503 23.6156 33.2249C23.6266 33.3043 23.4651 33.3549 23.3966 33.3814C22.9844 33.5371 22.5372 33.6227 22.1049 33.7065C21.7131 33.7826 21.2895 33.8072 20.9458 34.028C20.6124 34.2448 20.435 34.6204 20.4623 35.0162C20.4896 35.412 20.6583 35.8168 20.7923 36.1833C20.8688 36.3808 20.9488 36.5769 21.0492 36.7651C21.1396 36.9373 21.2311 37.1329 21.4115 37.2224C21.7068 37.375 22.114 37.2571 22.4016 37.1457C22.7098 37.0263 22.993 36.8528 23.279 36.6863C23.5875 36.507 23.9125 36.3293 24.2674 36.2595C24.4391 36.2249 24.6681 36.1959 24.7803 36.3636C24.8032 36.4026 24.7803 36.3636 24.7947 36.3501C24.7734 36.3663 24.7399 36.3713 24.7099 36.375C24.6545 36.3845 24.5945 36.3719 24.54 36.3532C24.414 36.3024 24.3156 36.201 24.22 36.1066C24.1345 36.0281 23.9926 36.3022 24.0522 36.3748C24.1876 36.5414 24.3736 36.7165 24.6045 36.7027C24.804 36.6892 24.9419 36.4963 24.991 36.3179C25.04 36.1395 24.9797 35.9636 24.7916 35.905C24.6117 35.8472 24.4182 35.8863 24.2437 35.934C23.5157 36.1284 22.9497 36.6903 22.215 36.8673C22.0173 36.916 21.7644 36.9542 21.5765 36.8557C21.3731 36.7472 21.2632 36.4432 21.175 36.2462C21.0722 36.0111 20.983 35.7707 20.8972 35.529C20.8222 35.315 20.7356 35.1016 20.7064 34.8738C20.6766 34.6343 20.7312 34.4498 20.9288 34.3095C21.121 34.1753 21.359 34.1189 21.5847 34.0714C22.0765 33.9685 22.5648 33.867 23.0487 33.7234C23.278 33.6545 23.5461 33.5944 23.6937 33.3859C23.802 33.2284 23.8569 32.9839 23.6858 32.847C23.3156 32.5522 22.8441 33.1851 23.0076 33.5361C23.0237 33.5777 23.0743 33.4744 23.0785 33.4648L23.0798 33.4683Z" fill="white"/>
<path d="M22.5057 33.6149C22.1355 33.1168 22.0365 32.414 22.244 31.8316C22.476 31.1799 23.0667 30.6921 23.6919 30.4459C24.9574 29.9517 26.3236 30.7134 27.2141 31.6195C28.0775 32.4963 28.662 33.7003 28.6398 34.9441C28.6189 36.1913 27.9938 37.4137 26.905 38.0387C26.2433 38.4145 25.4631 38.4538 24.7674 38.1217C24.0969 37.8037 23.6142 37.1778 23.4053 36.4658C23.3613 36.3116 23.1536 36.6191 23.185 36.7305C23.3859 37.4017 23.8141 38.0088 24.4181 38.3685C25.0234 38.7317 25.7727 38.816 26.4321 38.5765C27.7589 38.0983 28.617 36.6742 28.8162 35.318C29.0196 33.9323 28.5382 32.537 27.6083 31.4987C26.7028 30.4828 25.24 29.5832 23.8617 30.0813C23.0915 30.3597 22.433 30.9774 22.1244 31.7464C21.8541 32.4209 21.8951 33.2179 22.4055 33.7732C22.4476 33.8206 22.5368 33.6546 22.5043 33.6114L22.5057 33.6149Z" fill="white"/>
<path d="M23.6995 33.4832C24.0081 33.3039 24.2783 33.0358 24.373 32.6804C24.4591 32.3641 24.383 32.0151 24.1174 31.8072C23.5413 31.357 22.7682 31.8517 22.6239 32.4854C22.5823 32.6728 22.5898 32.8651 22.6528 33.0479C22.6996 33.1892 22.8128 33.4203 22.9709 33.4626C23.0323 33.4787 23.0932 33.3514 23.071 33.3043C23.0482 33.2454 23.0047 33.2144 22.9675 33.1691C22.9241 33.1181 22.8876 33.0645 22.8566 33.0048C22.8007 32.891 22.7674 32.7644 22.769 32.6363C22.777 32.3623 22.9283 32.1124 23.1621 31.974C23.3823 31.8409 23.6536 31.8195 23.8856 31.9408C24.1224 32.0642 24.256 32.3073 24.2255 32.5741C24.1898 32.8988 23.9293 33.1311 23.6647 33.2815C23.5776 33.3311 23.5693 33.5535 23.6913 33.4823L23.6995 33.4832Z" fill="white"/>
<path d="M24.4586 36.122C24.7221 36.0398 25.016 36.0056 25.2789 36.115C25.5193 36.2171 25.7227 36.4372 25.7194 36.7133C25.7169 36.9813 25.5345 37.1914 25.2961 37.2877C25.0325 37.3899 24.7329 37.3585 24.4901 37.2095C24.3568 37.1297 24.2504 37.0075 24.1837 36.866C24.1548 36.8015 24.1327 36.7343 24.1189 36.668C24.103 36.5865 24.1083 36.5087 24.074 36.4303C24.062 36.3992 24.0139 36.4377 24.0063 36.4486C23.9429 36.5289 23.9288 36.5942 23.9363 36.6949C23.9419 36.7804 23.9638 36.8675 23.9947 36.9472C24.051 37.0927 24.1396 37.2297 24.2564 37.3279C24.5171 37.5536 24.8888 37.6288 25.2166 37.5297C25.5294 37.4324 25.7865 37.1814 25.8653 36.8561C25.944 36.5307 25.8376 36.2053 25.5665 36.0036C25.2471 35.7687 24.8325 35.7859 24.4738 35.8969C24.3821 35.9245 24.3382 36.1567 24.4573 36.1185L24.4586 36.122Z" fill="white"/>
<path d="M23.6444 33.0346C23.6949 32.9513 23.7466 32.8715 23.7862 32.7805C23.8257 32.6894 23.8619 32.5997 23.8967 32.5066C23.9662 32.3202 24.0324 32.1352 24.0631 31.94C24.0695 31.9057 24.042 31.9363 24.0357 31.9507C23.9648 32.1335 23.9068 32.3193 23.8393 32.5009C23.8045 32.594 23.7684 32.6837 23.7323 32.7734C23.6982 32.8584 23.6724 32.9441 23.6418 33.0277C23.6431 33.0311 23.6444 33.0346 23.6418 33.0277L23.6444 33.0346Z" fill="white"/>
<path d="M23.4925 32.9496C23.509 32.8396 23.5384 32.7326 23.5528 32.6274C23.5672 32.5222 23.585 32.4157 23.5959 32.3119C23.6062 32.2163 23.6177 32.1241 23.6129 32.0304C23.6121 31.947 23.6121 31.8554 23.5778 31.777C23.5657 31.7458 23.5221 31.8265 23.5214 31.8347C23.5043 31.933 23.5105 32.0302 23.5111 32.1335C23.5132 32.2204 23.5038 32.3077 23.4943 32.3951C23.4841 32.4907 23.4807 32.5836 23.4726 32.6744C23.4658 32.7687 23.4719 32.8659 23.4651 32.9602C23.465 32.9802 23.4857 32.9522 23.4864 32.944L23.4925 32.9496Z" fill="white"/>
<path d="M23.2512 32.9756C23.2501 32.9322 23.2538 32.8909 23.2541 32.851C23.253 32.8076 23.2438 32.7633 23.2311 32.7204C23.2118 32.6402 23.1857 32.5627 23.1562 32.4865C23.1267 32.4103 23.0916 32.3402 23.0553 32.2666C23.0216 32.2 22.9913 32.132 22.9946 32.059C22.9933 32.0356 22.9811 32.0244 22.9633 32.0393C22.9406 32.052 22.9226 32.0869 22.9204 32.1116C22.9557 32.0502 22.9606 32.0323 22.9378 32.0651C22.9357 32.0698 22.9337 32.0746 22.9282 32.0808C22.9219 32.0951 22.9191 32.1082 22.9163 32.1212C22.9127 32.1425 22.9139 32.166 22.9151 32.1894C22.9203 32.2232 22.9338 32.2579 22.9527 32.2864C22.9891 32.36 23.0336 32.4343 23.07 32.5079C23.1091 32.5884 23.1365 32.6694 23.1653 32.7539C23.1814 32.7955 23.1859 32.8376 23.202 32.8791C23.2087 32.8965 23.2154 32.9138 23.2221 32.9311C23.2302 32.9519 23.2437 32.9666 23.2484 32.9887C23.2511 32.9956 23.2552 32.986 23.2573 32.9812L23.2512 32.9756Z" fill="white"/>
<path d="M25.7551 36.3922C25.6848 36.3836 25.6221 36.364 25.5573 36.3493C25.4925 36.3345 25.4264 36.3163 25.3582 36.3029C25.2852 36.2873 25.217 36.2739 25.1441 36.2584C25.0711 36.2428 25.0048 36.2446 24.9304 36.2455C24.927 36.2468 24.9194 36.2577 24.9241 36.2599C24.9909 36.2898 25.0528 36.3176 25.1258 36.3332C25.1988 36.3487 25.2731 36.3678 25.3461 36.3833C25.4838 36.4136 25.6114 36.4279 25.7536 36.4087C25.757 36.4074 25.7646 36.3965 25.7564 36.3957L25.7551 36.3922Z" fill="white"/>
<path d="M25.2789 37.3577C25.2397 37.2972 25.2218 37.2205 25.1881 37.1538C25.1592 37.0893 25.1221 37.024 25.0863 36.9622C25.0182 36.8372 24.95 36.7121 24.8648 36.5937C24.8608 36.5834 24.8394 36.6195 24.8434 36.6299C24.9149 36.7536 24.9933 36.8747 25.0649 36.9984C25.1006 37.0602 25.133 37.1234 25.1688 37.1852C25.2032 37.2436 25.2492 37.3015 25.2768 37.3625L25.2789 37.3577Z" fill="white"/>
<path d="M24.497 37.3218C24.5064 37.2544 24.5205 37.1892 24.5216 37.121C24.5241 37.0563 24.5218 36.9894 24.5196 36.9226C24.515 36.7888 24.5057 36.653 24.4861 36.5211C24.4821 36.5107 24.4808 36.5073 24.4678 36.5043C24.4678 36.5043 24.4678 36.5043 24.4644 36.5057C24.4398 36.5032 24.4175 36.5676 24.4126 36.5855C24.3972 36.6472 24.4253 36.72 24.4379 36.7829C24.4504 36.8457 24.4582 36.9065 24.466 36.9672C24.4703 37.0293 24.4747 37.0914 24.4791 37.1534C24.4821 37.212 24.4898 37.2728 24.4929 37.3314C24.4955 37.3383 24.5031 37.3274 24.5018 37.3239L24.497 37.3218Z" fill="white"/>
<path d="M27.2975 32.5156C27.4734 32.8578 27.6747 33.1743 27.7903 33.5439C27.9025 33.9148 27.9449 34.3088 27.9333 34.6958C27.9043 35.6474 27.5125 36.4964 27.0236 37.2874C27.016 37.2984 27.0102 37.3444 27.0343 37.3152C27.5817 36.5732 27.9631 35.6365 28.0132 34.7087C28.0336 34.3142 27.9899 33.9168 27.8853 33.535C27.7847 33.1635 27.6272 32.7265 27.3244 32.4733C27.3169 32.4642 27.2961 32.5121 27.2988 32.519L27.2975 32.5156Z" fill="white"/>
<path d="M27.5086 33.5893C27.5807 33.9279 27.6138 34.2776 27.5944 34.6239C27.5743 34.9584 27.5024 35.2811 27.4578 35.6131C27.4528 35.6509 27.4928 35.5916 27.497 35.582C27.5935 35.2418 27.6459 34.8788 27.6661 34.5244C27.6848 34.1864 27.6687 33.85 27.5486 33.5299C27.5419 33.5126 27.5032 33.5754 27.5086 33.5893Z" fill="white"/>
<path d="M21.1075 36.4079C21.6159 36.0635 22.1836 35.8515 22.7452 35.614C23.3432 35.3585 23.9244 35.0696 24.49 34.7509C24.49 34.7509 24.4942 34.7413 24.4907 34.7426C23.9054 35.0411 23.3086 35.3201 22.7072 35.577C22.1593 35.8092 21.5651 36.0035 21.1069 36.3961C21.1035 36.3975 21.102 36.414 21.1075 36.4079Z" fill="white"/>
<path d="M20.8531 35.6614C21.4497 35.4024 22.0611 35.1814 22.6779 34.9744C22.9811 34.8728 23.281 34.7726 23.5815 34.6642C23.8855 34.5544 24.1998 34.4406 24.4728 34.2711C24.4831 34.2671 24.497 34.2219 24.4751 34.2264C24.1747 34.3148 23.8849 34.451 23.5925 34.5603C23.2864 34.6749 22.9763 34.7791 22.6628 34.8846C22.0405 35.0978 21.423 35.3131 20.8519 35.6379C20.845 35.6406 20.838 35.6632 20.8483 35.6592L20.8531 35.6614Z" fill="white"/>
<path d="M20.6081 34.8124C20.7811 34.7812 20.9593 34.7839 21.1337 34.7562C21.3046 34.7298 21.4763 34.6952 21.6418 34.655C21.9982 34.5687 22.3567 34.4777 22.6964 34.3381C22.7033 34.3354 22.7124 34.308 22.7021 34.312C22.3614 34.3882 22.0254 34.4865 21.6848 34.5626C21.5076 34.6034 21.3291 34.6407 21.152 34.6814C20.9714 34.7235 20.7872 34.7868 20.6033 34.8103C20.6033 34.8103 20.5999 34.8116 20.6047 34.8137L20.6081 34.8124Z" fill="white"/>
<path d="M21.3257 36.7777C21.5038 36.7087 21.6804 36.6562 21.8517 36.5699C22.0299 36.481 22.2033 36.3899 22.374 36.2919C22.5358 36.2013 22.6949 36.1038 22.8541 36.0063C23.0255 35.9001 23.2189 35.7893 23.3728 35.658C23.3851 35.6492 23.415 35.5739 23.3773 35.5885C23.2931 35.6251 23.2169 35.6825 23.138 35.733C23.0578 35.78 22.9741 35.8283 22.8939 35.8754C22.7245 35.9768 22.5524 36.0714 22.3817 36.1694C22.213 36.2626 22.0444 36.3558 21.8723 36.4504C21.6865 36.5503 21.5122 36.6696 21.3312 36.7716C21.3312 36.7716 21.3271 36.7811 21.3305 36.7798L21.3257 36.7777Z" fill="white"/>
<path d="M28.2138 16.8166C27.9275 17.2263 27.6338 17.627 27.3741 18.0543C27.1068 18.4925 26.8721 18.954 26.6538 19.4171C26.215 20.3481 25.8465 21.3077 25.5515 22.2946C25.3837 22.8576 25.2398 23.4313 25.1204 24.0075C25.1027 24.0941 25.1208 24.2424 25.2414 24.1878C25.3654 24.1318 25.4397 23.9476 25.4638 23.8267C25.8704 21.9081 26.5338 20.0732 27.4234 18.334C27.6803 17.8281 27.9262 17.3145 28.2239 16.8326C28.2336 16.8169 28.229 16.7948 28.2172 16.8153L28.2138 16.8166Z" fill="white"/>
<path d="M29.5417 14.6729C29.079 15.8163 29.0069 17.0635 28.7671 18.2641C28.656 18.8211 28.5095 19.3679 28.2683 19.8837C28.0375 20.3756 27.7312 20.8249 27.3726 21.2308C26.9513 21.7088 26.4335 22.1205 25.8971 22.4638C25.7935 22.5318 25.7257 22.6617 25.7016 22.7826C25.6889 22.8513 25.694 22.9967 25.8016 22.9391C26.8695 22.382 27.725 21.429 28.2944 20.3677C28.9032 19.2354 29.1235 17.9746 29.2784 16.7073C29.363 16.0211 29.4675 15.3351 29.6271 14.6597C29.6531 14.554 29.5612 14.6215 29.5383 14.6742L29.5417 14.6729Z" fill="white"/>
<path d="M25.5519 22.9078C25.4295 22.6324 25.3907 22.3088 25.3326 22.0165C25.2818 21.7533 25.2461 21.4882 25.2418 21.2229C25.2386 20.6863 25.3427 20.1519 25.536 19.6546C26.0006 18.4347 26.9737 17.4601 27.8983 16.5839C28.1802 16.3154 28.4668 16.0489 28.7521 15.779C28.9019 15.6373 29.0552 15.4943 29.2037 15.3491C29.3599 15.193 29.4908 15.0227 29.6164 14.8386C29.637 14.8107 29.6873 14.6557 29.6064 14.691C29.2736 14.8279 29.0223 15.1245 28.7624 15.3686C28.4881 15.6263 28.2152 15.8874 27.9444 16.1437C27.415 16.6476 26.8884 17.1585 26.4241 17.7288C25.6031 18.7401 24.9745 19.9638 24.9476 21.2971C24.9406 21.6145 24.9636 21.9483 25.0482 22.2582C25.0869 22.3986 25.1386 22.522 25.2149 22.6478C25.2507 22.7097 25.283 22.7728 25.3243 22.8286C25.373 22.8934 25.4341 22.9494 25.4842 23.0177C25.5119 23.0587 25.5653 22.9424 25.5498 22.9125L25.5519 22.9078Z" fill="white"/>
<path d="M25.6757 22.1903C25.6992 21.7629 25.7902 21.3371 25.8675 20.9167C25.9413 20.5176 26.0117 20.1198 26.0725 19.7177C26.0775 19.6799 26.0458 19.72 26.0396 19.7344C25.9399 20.1276 25.8606 20.5329 25.8114 20.9345C25.756 21.3504 25.7346 21.773 25.6676 22.1895C25.6702 22.1964 25.671 22.1882 25.6744 22.1868L25.6757 22.1903Z" fill="white"/>
<path d="M25.6865 22.0748C25.7789 21.9474 25.8883 21.8333 25.9834 21.7128C26.086 21.5814 26.1826 21.4444 26.2805 21.3108C26.4742 21.0485 26.6761 20.787 26.8794 20.529C27.3037 19.998 27.7342 19.4727 28.1694 18.9494C28.1859 18.9311 28.2085 18.8267 28.1618 18.8687C27.6873 19.3314 27.2509 19.8312 26.845 20.359C26.6376 20.6266 26.4397 20.8985 26.2432 21.1739C26.1466 21.3109 26.0487 21.4444 25.9583 21.587C25.8582 21.7454 25.7805 21.9109 25.6838 22.0679C25.6838 22.0679 25.6844 22.0796 25.6865 22.0748Z" fill="white"/>
<path d="M26.4407 20.2089C26.527 20.0759 26.6411 19.9639 26.7396 19.8421C26.8305 19.7311 26.9249 19.6189 27.011 19.5058C27.1985 19.2579 27.3703 19.0001 27.5612 18.7508C27.5667 18.7447 27.5703 18.7234 27.5558 18.737C27.3637 18.9628 27.1573 19.1822 26.9761 19.4158C26.8845 19.5349 26.7989 19.6597 26.7168 19.7832C26.6216 19.9237 26.542 20.074 26.438 20.202C26.4346 20.2033 26.4352 20.215 26.4407 20.2089Z" fill="white"/>
<path d="M26.9222 19.1058C26.9817 18.9951 27.0507 18.8887 27.1089 18.7745C27.1746 18.6494 27.2261 18.5179 27.2762 18.383C27.3242 18.2528 27.3688 18.124 27.4121 17.9916C27.4511 17.8689 27.4931 17.7332 27.5131 17.6019C27.5196 17.5476 27.4784 17.5834 27.468 17.6074C27.4077 17.7264 27.3584 17.8531 27.3077 17.9763C27.257 18.0995 27.2076 18.2262 27.1569 18.3495C27.1075 18.4762 27.0582 18.6029 27.017 18.7304C26.9766 18.8497 26.947 18.9767 26.9066 19.0959C26.8983 19.1151 26.9173 19.1236 26.9256 19.1045L26.9222 19.1058Z" fill="white"/>
<path d="M27.1984 18.5367C27.4438 18.3062 27.7027 18.0903 27.9481 17.8598C28.076 17.7425 28.1977 17.6196 28.3099 17.4925C28.4255 17.364 28.5557 17.202 28.6231 17.0405C28.6356 17.0117 28.6485 16.923 28.5949 16.9677C28.5345 17.015 28.4869 17.0853 28.4339 17.1416C28.3809 17.198 28.3266 17.2509 28.2702 17.3087C28.1464 17.4363 28.0178 17.5618 27.8913 17.6825C27.6294 17.9314 27.3873 18.1806 27.1864 18.4855C27.1788 18.4964 27.164 18.5699 27.1984 18.5367Z" fill="white"/>
<path d="M34.2516 30.7062C33.8706 30.3836 33.4925 30.048 33.093 29.7485C32.6792 29.4427 32.2433 29.1612 31.8005 28.9025C30.9156 28.3767 29.9933 27.9171 29.0412 27.5329C28.4956 27.314 27.9431 27.1176 27.3802 26.9452C27.295 26.9184 27.1474 26.9238 27.1923 27.0499C27.2385 27.1794 27.4155 27.2702 27.5313 27.305C29.3946 27.8861 31.1604 28.7241 32.8115 29.7739C33.2915 30.078 33.7792 30.3712 34.2344 30.7128C34.2467 30.7241 34.2699 30.723 34.2516 30.7062Z" fill="white"/>
<path d="M36.27 32.2389C35.1757 31.6707 33.9449 31.4821 32.7781 31.1332C32.2342 30.9694 31.7049 30.772 31.2152 30.4836C30.7492 30.2059 30.3275 29.8592 29.9532 29.4623C29.5125 28.9955 29.1462 28.4362 28.8469 27.8668C28.7875 27.7543 28.6624 27.6753 28.5479 27.644C28.477 27.6236 28.337 27.6181 28.3848 27.7311C28.8524 28.8568 29.731 29.8034 30.7385 30.473C31.8113 31.189 33.0404 31.5257 34.2822 31.7937C34.9533 31.9401 35.6242 32.1066 36.2783 32.3313C36.3791 32.368 36.3238 32.2659 36.2714 32.2423L36.27 32.2389Z" fill="white"/>
<path d="M28.4364 27.4763C28.7178 27.3793 29.0395 27.3662 29.3348 27.3355C29.6 27.3085 29.8623 27.2945 30.1278 27.3192C30.6575 27.365 31.1789 27.5216 31.6554 27.7554C32.8281 28.3331 33.7141 29.4003 34.511 30.4105C34.7561 30.7179 34.9992 31.0302 35.2409 31.339C35.3716 31.5035 35.4988 31.6694 35.6329 31.8326C35.7745 32.0049 35.9333 32.1505 36.1071 32.2944C36.135 32.3155 36.2827 32.3817 36.2553 32.3007C36.1443 31.9532 35.8703 31.6729 35.6476 31.3926C35.4133 31.0929 35.177 30.798 34.9427 30.4982C34.4823 29.9196 34.0184 29.3422 33.4913 28.8252C32.5538 27.9094 31.3944 27.1632 30.0773 27.016C29.7648 26.9817 29.4302 26.9718 29.1224 27.0313C28.9795 27.0588 28.8536 27.0996 28.7241 27.1617C28.6617 27.1938 28.5966 27.219 28.5356 27.2546C28.467 27.3011 28.4092 27.3554 28.3393 27.3984C28.2975 27.4226 28.4043 27.4848 28.4398 27.475L28.4364 27.4763Z" fill="white"/>
<path d="M29.1318 27.6652C29.5507 27.73 29.9671 27.8596 30.3734 27.9731C30.7619 28.0816 31.1505 28.1901 31.5384 28.2868C31.5773 28.2957 31.5393 28.2586 31.525 28.2522C31.1442 28.1128 30.7509 28.0022 30.3574 27.9116C29.9476 27.8193 29.5335 27.7566 29.1278 27.6548C29.1196 27.654 29.1291 27.6583 29.1305 27.6617L29.1318 27.6652Z" fill="white"/>
<path d="M29.2497 27.687C29.3692 27.7921 29.4708 27.9121 29.5869 28.0185C29.707 28.1354 29.8381 28.24 29.9616 28.3555C30.208 28.5748 30.4489 28.8003 30.6877 29.0305C31.1789 29.5056 31.6646 29.9868 32.1503 30.4681C32.1686 30.4849 32.2681 30.5181 32.2295 30.4693C31.8069 29.9476 31.3445 29.4654 30.8565 29.0089C30.6095 28.7779 30.3557 28.5495 30.0963 28.3272C29.9707 28.2165 29.8417 28.1071 29.7106 28.0025C29.5639 27.888 29.4054 27.794 29.2552 27.6808C29.2552 27.6808 29.2457 27.6766 29.2484 27.6835L29.2497 27.687Z" fill="white"/>
<path d="M31.0333 28.6183C31.1582 28.7173 31.2612 28.8408 31.3718 28.9533C31.4749 29.0568 31.578 29.1603 31.6818 29.2556C31.9139 29.4685 32.1557 29.6657 32.3865 29.8751C32.3891 29.882 32.4137 29.8845 32.4015 29.8733C32.1926 29.6593 31.9947 29.4332 31.7735 29.228C31.6622 29.1237 31.5468 29.029 31.43 28.9308C31.301 28.8214 31.1554 28.7303 31.034 28.61C31.0327 28.6066 31.021 28.6071 31.0272 28.6127L31.0333 28.6183Z" fill="white"/>
<path d="M32.0897 29.201C32.1958 29.2714 32.2963 29.348 32.4024 29.4185C32.5227 29.4954 32.6507 29.5614 32.7773 29.6239C32.8991 29.6843 33.0278 29.742 33.1551 29.7963C33.2729 29.8463 33.405 29.9027 33.5312 29.9335C33.583 29.9453 33.5539 29.9008 33.5288 29.8866C33.4179 29.814 33.2961 29.7536 33.1777 29.6919C33.0593 29.6302 32.9409 29.5685 32.819 29.5081C32.7006 29.4464 32.5788 29.386 32.4549 29.3304C32.3371 29.2804 32.2185 29.2387 32.1041 29.1874C32.0851 29.1788 32.0754 29.1945 32.0958 29.2066L32.0897 29.201Z" fill="white"/>
<path d="M32.6309 29.5294C32.8401 29.795 33.0328 30.0789 33.242 30.3445C33.3503 30.4819 33.4608 30.6144 33.578 30.7443C33.6987 30.8729 33.8459 31.019 34.0038 31.1013C34.029 31.1155 34.1162 31.1374 34.0784 31.0804C34.0365 31.0129 33.9686 30.9596 33.9191 30.903C33.8649 30.8443 33.8175 30.783 33.7667 30.723C33.6515 30.5883 33.537 30.4454 33.4239 30.3059C33.1951 30.02 32.9695 29.7528 32.6842 29.5247C32.672 29.5135 32.6059 29.4952 32.6309 29.5294Z" fill="white"/>
<path d="M17.7422 38.5527C17.4594 38.9611 17.1623 39.3631 16.9025 39.7905C16.6352 40.2287 16.4039 40.6888 16.1822 41.1533C15.7435 42.0842 15.3763 43.0473 15.0847 44.0328C14.9169 44.5959 14.7729 45.1696 14.6583 45.748C14.6407 45.8345 14.6588 45.9829 14.7793 45.9282C14.8999 45.8735 14.9777 45.688 15.0017 45.5671C15.4049 43.6498 16.067 41.8115 16.9518 40.0702C17.2087 39.5643 17.4512 39.0519 17.7476 38.5666C17.7572 38.5509 17.7526 38.5288 17.7409 38.5493L17.7422 38.5527Z" fill="white"/>
<path d="M19.0568 36.4294C18.6059 37.5524 18.5353 38.7831 18.3038 39.9644C18.1969 40.5119 18.0594 41.0513 17.8257 41.5562C17.5914 42.0693 17.278 42.5413 16.9063 42.9642C16.4851 43.4422 15.9673 43.8539 15.4343 44.1959C15.3307 44.2639 15.2629 44.3938 15.2388 44.5147C15.226 44.5834 15.2312 44.7288 15.3388 44.6712C16.4067 44.114 17.2608 43.1576 17.8302 42.0963C18.4397 40.9557 18.6574 39.688 18.813 38.4125C18.8956 37.731 18.9993 37.0534 19.1548 36.3875C19.1857 36.2639 19.0729 36.3794 19.0555 36.4259L19.0568 36.4294Z" fill="white"/>
<path d="M15.0871 44.6495C14.9647 44.3742 14.9226 44.0518 14.8679 43.7582C14.8144 43.4881 14.7773 43.2195 14.7772 42.9447C14.7767 42.4149 14.8801 41.8888 15.0665 41.3942C15.5263 40.1722 16.5029 39.1962 17.4261 38.3166C17.708 38.048 17.9933 37.7781 18.2751 37.5095C18.425 37.3678 18.5783 37.2248 18.7255 37.0761C18.8816 36.92 19.0125 36.7498 19.1381 36.5656C19.1587 36.5377 19.209 36.3828 19.1281 36.4181C18.7953 36.555 18.5453 36.855 18.2889 37.0978C18.016 37.3589 17.7451 37.6153 17.4722 37.8764C16.9428 38.3803 16.4175 38.8946 15.9567 39.4636C15.137 40.4784 14.5071 41.6986 14.4849 43.034C14.478 43.3514 14.501 43.6852 14.589 43.9938C14.6276 44.1342 14.6794 44.2576 14.7557 44.3834C14.7915 44.4453 14.8238 44.5084 14.8651 44.5642C14.9138 44.629 14.9749 44.685 15.025 44.7533C15.0527 44.7943 15.1061 44.678 15.0906 44.6481L15.0871 44.6495Z" fill="white"/>
<path d="M15.2097 43.9321C15.2331 43.5047 15.3241 43.079 15.4015 42.6585C15.4752 42.2594 15.5456 41.8616 15.603 41.4608C15.608 41.423 15.5763 41.4632 15.5701 41.4776C15.4704 41.8708 15.3932 42.2712 15.344 42.6728C15.2899 43.0922 15.2699 43.5183 15.2028 43.9348C15.2055 43.9417 15.2063 43.9335 15.2097 43.9321Z" fill="white"/>
<path d="M15.2187 43.8132C15.3111 43.6858 15.4205 43.5717 15.5156 43.4512C15.6183 43.3198 15.7148 43.1828 15.8127 43.0492C16.0064 42.7869 16.2083 42.5254 16.4116 42.2674C16.8359 41.7364 17.2664 41.211 17.6969 40.6857C17.7134 40.6673 17.736 40.563 17.6892 40.605C17.2161 41.0711 16.7797 41.5709 16.3738 42.0987C16.1698 42.365 15.9706 42.6334 15.7796 42.9027C15.6796 43.041 15.581 43.1828 15.4905 43.3254C15.3938 43.4824 15.3128 43.6493 15.2161 43.8063C15.2161 43.8063 15.2167 43.818 15.2187 43.8132Z" fill="white"/>
<path d="M15.9746 41.9508C16.0609 41.8177 16.1751 41.7058 16.2736 41.584C16.3645 41.473 16.4588 41.3608 16.545 41.2477C16.7324 40.9998 16.9029 40.7385 17.0951 40.4927C17.1007 40.4866 17.1042 40.4653 17.0898 40.4788C16.8977 40.7047 16.6913 40.9241 16.5114 41.1611C16.4197 41.2803 16.3342 41.4051 16.2521 41.5285C16.1569 41.669 16.0773 41.8194 15.9733 41.9473C15.9699 41.9486 15.9705 41.9604 15.976 41.9542L15.9746 41.9508Z" fill="white"/>
<path d="M16.4547 40.8406C16.5142 40.7299 16.5832 40.6235 16.6379 40.5106C16.7037 40.3856 16.7538 40.2506 16.8052 40.1191C16.8533 39.9889 16.8979 39.8601 16.9411 39.7278C16.9802 39.6051 17.0221 39.4693 17.0421 39.338C17.0487 39.2837 17.0074 39.3196 16.997 39.3435C16.9368 39.4625 16.8874 39.5892 16.8367 39.7124C16.786 39.8357 16.7367 39.9624 16.6859 40.0856C16.6366 40.2123 16.5872 40.339 16.5461 40.4665C16.5056 40.5858 16.4761 40.7128 16.4356 40.8321C16.4273 40.8512 16.4464 40.8598 16.4547 40.8406Z" fill="white"/>
<path d="M16.7258 40.273C16.9712 40.0424 17.2302 39.8266 17.4756 39.596C17.6021 39.4753 17.7252 39.3559 17.8374 39.2288C17.953 39.1003 18.0832 38.9383 18.1505 38.7767C18.163 38.748 18.1759 38.6593 18.1224 38.704C18.0619 38.7513 18.0143 38.8215 17.9614 38.8779C17.9084 38.9343 17.8541 38.9872 17.7977 39.0449C17.6739 39.1726 17.5453 39.2981 17.4188 39.4188C17.1569 39.6677 16.9161 39.9204 16.7152 40.2253C16.7077 40.2362 16.6928 40.3097 16.7272 40.2764L16.7258 40.273Z" fill="white"/>
<path d="M39.3081 25.3571C38.3366 26.0004 37.589 27.1706 37.7622 28.3904C37.8371 28.9192 38.1124 29.4063 38.5322 29.7377C38.9377 30.0627 39.4544 30.2172 39.9651 30.2345C41.1764 30.2713 42.3438 29.5441 42.9472 28.5095C43.498 27.563 43.5894 26.2844 42.7509 25.4617C41.8147 24.5494 40.3234 24.7048 39.3061 25.3619C39.2306 25.411 39.1747 25.5004 39.1583 25.5904C39.1512 25.633 39.1531 25.7598 39.232 25.7093C40.0826 25.1606 41.2286 24.9677 42.1449 25.4933C43.0143 25.9892 43.3445 27.0447 43.0137 27.9698C42.6495 28.9914 41.6167 29.7103 40.5681 29.8495C39.6165 29.9751 38.5858 29.6014 38.1577 28.6795C37.6334 27.5598 38.292 26.3324 39.2354 25.708C39.3109 25.6588 39.3668 25.5694 39.3831 25.4794C39.3902 25.4368 39.3884 25.31 39.3095 25.3605L39.3081 25.3571Z" fill="white"/>
<path d="M39.6702 25.9143C38.9408 26.4 38.3625 27.2655 38.4621 28.1832C38.5541 29.0002 39.2616 29.5151 40.0441 29.5427C40.9549 29.5763 41.8438 29.0248 42.3094 28.2547C42.7267 27.5631 42.8631 26.5939 42.235 25.9686C41.5418 25.2769 40.4214 25.424 39.6688 25.9108C39.5933 25.96 39.5374 26.0494 39.5211 26.1394C39.514 26.182 39.5158 26.3088 39.5947 26.2583C40.21 25.8645 41.0328 25.7012 41.7044 26.0626C42.3304 26.3978 42.578 27.1386 42.3406 27.7964C42.0746 28.533 41.3117 29.0437 40.5596 29.1557C39.8849 29.2537 39.1393 29.0166 38.8194 28.3636C38.4315 27.5655 38.9271 26.7002 39.5947 26.2583C39.6702 26.2091 39.7261 26.1197 39.7424 26.0297C39.7496 25.9871 39.7477 25.8603 39.6688 25.9108L39.6702 25.9143Z" fill="white"/>
<path d="M19.5727 25.5866C19.0243 26.58 18.8722 27.9459 19.5909 28.9066C20.2683 29.8116 21.4654 29.9336 22.4167 29.4416C23.4949 28.8804 24.2244 27.6735 24.2922 26.4558C24.3522 25.3807 23.8156 24.2498 22.7222 23.9482C21.4209 23.5877 20.1874 24.4999 19.5727 25.5866C19.5472 25.6324 19.495 25.7722 19.563 25.8056C19.6324 25.8424 19.7058 25.7064 19.7306 25.6689C20.2277 24.787 21.215 24.1336 22.2523 24.2498C23.2651 24.3635 23.9516 25.2411 24.052 26.2222C24.1621 27.2992 23.6109 28.3972 22.7116 28.9727C21.8946 29.4964 20.7926 29.5488 20.042 28.8514C19.1632 28.0364 19.1898 26.6514 19.7306 25.6689C19.7562 25.6232 19.8084 25.4834 19.7403 25.45C19.6709 25.4131 19.5962 25.5457 19.5727 25.5866Z" fill="white"/>
<path d="M20.1489 25.9136C19.7444 26.648 19.5987 27.6647 20.1135 28.3937C20.5991 29.0781 21.4912 29.1549 22.187 28.7857C22.9993 28.3515 23.5471 27.438 23.6163 26.5187C23.677 25.7302 23.3101 24.8643 22.492 24.6433C21.5111 24.3778 20.6059 25.111 20.1489 25.9136C20.1234 25.9593 20.0712 26.0991 20.1392 26.1325C20.2086 26.1693 20.282 26.0333 20.3068 25.9958C20.6643 25.3633 21.3765 24.8842 22.1197 24.9628C22.8417 25.0377 23.3134 25.6758 23.3817 26.3705C23.4542 27.1473 23.0555 27.9273 22.4181 28.3456C21.8404 28.7247 21.0519 28.7832 20.513 28.2867C19.8799 27.6992 19.9216 26.6989 20.3068 25.9958C20.3324 25.9501 20.3846 25.8103 20.3165 25.7769C20.2471 25.7401 20.1724 25.8726 20.1503 25.917L20.1489 25.9136Z" fill="white"/>
<path d="M17.6951 32.7732C17.5733 33.0076 17.4686 33.2354 17.3897 33.4891C17.352 33.6153 17.319 33.7437 17.2908 33.8741C17.2654 33.9915 17.2358 34.1185 17.2316 34.2397C17.2282 34.3327 17.2397 34.4438 17.3151 34.5062C17.4014 34.5764 17.5144 34.5326 17.6068 34.4968C17.8122 34.4172 17.9949 34.2787 18.1496 34.1192C18.2425 34.0234 18.3292 33.9221 18.4112 33.8186C18.4919 33.7117 18.5875 33.6029 18.6369 33.4762C18.6473 33.4522 18.6589 33.3601 18.602 33.3861C18.5499 33.4142 18.5154 33.4675 18.4782 33.5137C18.4444 33.5587 18.4059 33.6015 18.3673 33.6443C18.2868 33.7313 18.2111 33.8204 18.1231 33.8983C18.042 33.9736 17.9535 34.0398 17.8609 34.0955C17.7717 34.15 17.6408 34.2286 17.5322 34.2229C17.412 34.2176 17.4026 34.1018 17.408 34.004C17.4164 33.8733 17.4412 33.7441 17.466 33.615C17.5226 33.3341 17.6031 33.0439 17.7115 32.7748C17.7199 32.7556 17.7056 32.7492 17.6972 32.7684L17.6951 32.7732Z" fill="white"/>
<path d="M18.9253 32.1173C18.8161 32.303 18.6831 32.4781 18.5365 32.6385C18.498 32.6813 18.4374 32.7486 18.37 32.7269C18.3393 32.7189 18.3217 32.6938 18.3144 32.6648C18.3105 32.6344 18.323 32.6056 18.3075 32.5758C18.3094 32.591 18.31 32.6027 18.312 32.6179C18.3148 32.6048 18.3176 32.5918 18.3204 32.5787C18.3233 32.5657 18.3255 32.5409 18.3091 32.5393C18.2914 32.5342 18.2741 32.5608 18.2665 32.5717C18.259 32.5826 18.2493 32.5983 18.2465 32.6114C18.2389 32.6223 18.2444 32.6162 18.2561 32.5957C18.2506 32.6018 18.243 32.6127 18.2389 32.6223C18.2195 32.6537 18.2063 32.6907 18.2013 32.7285C18.19 32.7807 18.1827 32.8433 18.2097 32.8926C18.2724 33.0037 18.4006 32.9382 18.4707 32.8751C18.5744 32.7871 18.66 32.6624 18.7379 32.5485C18.8235 32.4237 18.8968 32.2877 18.962 32.1509C18.9695 32.14 18.9828 32.103 18.9658 32.0897C18.9502 32.0798 18.9316 32.1029 18.924 32.1138L18.9253 32.1173Z" fill="white"/>
<path d="M20.1993 39.4811C19.9939 39.8556 19.8232 40.2484 19.6879 40.6514C19.5959 40.9222 19.4479 41.2823 19.5593 41.5698C19.6922 41.9128 20.1908 41.7157 20.4134 41.6095C20.7478 41.4561 21.0335 41.2179 21.2949 40.9573C21.638 40.6132 21.9425 40.2402 22.2116 39.8372C22.2213 39.8215 22.2257 39.7719 22.1995 39.806C21.9027 40.168 21.5942 40.5305 21.2559 40.8568C20.9521 41.1499 20.6087 41.4223 20.2048 41.5589C20.0241 41.6209 19.7914 41.6911 19.6326 41.5455C19.4575 41.3782 19.5613 41.087 19.62 40.8929C19.7647 40.4025 19.9606 39.9322 20.2006 39.4846C20.2041 39.4833 20.1966 39.4742 20.1993 39.4811Z" fill="white"/>
<path d="M44.2922 30.7852C44.1911 30.9917 44.0812 31.1857 43.9114 31.3471C43.7904 31.4617 43.4902 31.7135 43.326 31.554C43.2562 31.4854 43.2186 31.3884 43.1508 31.3151C43.0979 31.2598 43.0395 31.2108 42.9722 31.1691C42.8266 31.078 42.6569 31.0362 42.4862 31.0227C41.6732 30.9671 41.1169 31.7165 40.7091 32.3207C40.4062 32.7688 40.1338 33.2448 39.9459 33.7559C39.9174 33.8347 39.9783 33.8191 40.008 33.7637C40.2426 33.3222 40.4716 32.8868 40.747 32.4694C40.9879 32.1051 41.2521 31.7199 41.6199 31.4698C41.9438 31.2487 42.3563 31.1447 42.7371 31.2841C42.9054 31.3424 43.0542 31.4521 43.1571 31.5955C43.2085 31.6673 43.2496 31.743 43.3437 31.7623C43.4188 31.7731 43.492 31.7487 43.5578 31.7152C43.8997 31.5509 44.2404 31.1799 44.2922 30.7852Z" fill="white"/>
<path d="M34.4667 32.723C33.6748 33.2608 32.9913 33.936 32.211 34.4933C31.8225 34.7713 31.4015 35.0061 30.9443 35.1473C30.8205 35.1834 30.6863 35.2234 30.5673 35.1499C30.4552 35.0739 30.3954 34.9297 30.4038 34.7989C30.4088 34.6695 30.4663 34.5436 30.5149 34.4251C30.5698 34.2923 30.6199 34.1574 30.6666 34.0237C30.8756 33.4248 30.9933 32.7935 30.9629 32.1558C30.9597 32.1172 30.9239 32.1669 30.919 32.1848C30.8298 32.8289 30.7011 33.4725 30.4893 34.0845C30.398 34.3469 30.2542 34.6059 30.229 34.8865C30.2085 35.0977 30.2796 35.373 30.5038 35.4535C30.7184 35.5297 31.0192 35.3813 31.2165 35.3009C31.4548 35.2046 31.6858 35.0792 31.9033 34.9392C32.3361 34.664 32.7284 34.3247 33.1065 33.9791C33.5546 33.5704 33.9782 33.1393 34.4609 32.769C34.4732 32.7603 34.488 32.7068 34.4598 32.7256L34.4667 32.723Z" fill="white"/>
<path d="M23.8861 18.3735C23.3951 19.1494 23.0347 20.0181 22.8496 20.9226C22.7832 21.2392 22.6515 21.7126 22.853 22.009C23.091 22.3591 23.4899 22.0572 23.6955 21.846C23.7464 21.7944 23.7987 21.5431 23.6697 21.6369C23.4699 21.782 23.117 21.9586 22.9916 21.6247C22.9365 21.4826 22.9574 21.3231 22.9755 21.1766C22.9973 20.9889 23.032 20.8041 23.0668 20.6193C23.2224 19.8419 23.5123 19.096 23.9199 18.4201C23.9468 18.3778 23.9268 18.3059 23.8847 18.37L23.8861 18.3735Z" fill="white"/>
<path d="M28.3738 22.1696C28.1686 22.4125 27.956 22.6463 27.7725 22.9046C27.5967 23.152 27.4391 23.4163 27.2959 23.6869C27.0627 24.1319 26.8042 24.6743 26.9311 25.1949C26.9523 25.2903 27.0033 25.4219 27.12 25.4285C27.2169 25.4348 27.3043 25.3452 27.3737 25.2904C27.5844 25.1331 27.7938 24.9722 28.0289 24.8573C28.1412 24.8018 28.2645 24.754 28.3856 24.7311C28.4444 24.7202 28.5079 24.7115 28.5666 24.7207C28.658 24.7331 28.694 24.775 28.7111 24.8599C28.7601 25.088 28.6103 25.3214 28.5998 25.5485C28.5881 25.7722 28.6832 26.0382 28.9484 26.0112C29.0953 25.9941 29.2257 25.9037 29.3464 25.8291C29.4974 25.7308 29.6327 25.6226 29.766 25.4992C29.8093 25.4585 29.8577 25.38 29.8499 25.3193C29.8448 25.2655 29.8156 25.2409 29.7675 25.2795C29.5711 25.4432 29.3319 25.6594 29.0828 25.728C28.805 25.8037 28.7298 25.5181 28.7723 25.3024C28.8104 25.1163 28.893 24.9329 28.8574 24.7395C28.8476 24.6836 28.8135 24.5653 28.7529 24.5409C28.6712 24.5128 28.5157 24.5691 28.4316 24.5857C28.0014 24.6847 27.662 24.9675 27.3093 25.2157C27.2509 25.2583 27.1871 25.3069 27.115 25.2631C27.0524 25.2236 27.0271 25.1378 27.0132 25.0714C26.9806 24.9366 26.9803 24.7933 26.9989 24.6586C27.0356 24.3974 27.1336 24.1522 27.2424 23.9148C27.3873 23.6077 27.5512 23.3091 27.7355 23.0225C27.9253 22.7299 28.1275 22.4284 28.3717 22.1744C28.3717 22.1744 28.3725 22.1662 28.3704 22.171L28.3738 22.1696Z" fill="white"/>
<path d="M45.9879 35.424C46.1661 35.1318 46.3647 34.8517 46.5334 34.5552C46.7021 34.2588 46.8564 33.9559 47.0047 33.6475C47.153 33.339 47.2931 33.0298 47.4223 32.7127C47.5466 32.4136 47.6737 32.1013 47.7422 31.78C47.7457 31.7587 47.7279 31.7736 47.7237 31.7831C47.5687 32.0743 47.4464 32.3886 47.3152 32.6905C47.1854 32.9958 47.0461 33.2968 46.9033 33.5991C46.7647 33.8919 46.62 34.179 46.4718 34.4675C46.3078 34.7861 46.1628 35.1132 45.9817 35.4184C45.9817 35.4184 45.9844 35.4253 45.9831 35.4219L45.9879 35.424Z" fill="white"/>
<path d="M45.4542 35.5627C45.5812 35.3621 45.7144 35.1671 45.8305 34.9587C45.8893 34.8562 45.9399 34.753 45.9877 34.6428C46.0294 34.547 46.0855 34.4376 46.0896 34.3364C46.0919 34.2916 46.048 34.3206 46.0363 34.3411C45.9851 34.4326 45.957 34.5431 45.9154 34.639C45.8717 34.7396 45.8198 34.8394 45.7665 34.9357C45.6606 35.1401 45.5486 35.3389 45.4379 35.5411C45.4296 35.5603 45.4335 35.5906 45.4494 35.5606L45.4542 35.5627Z" fill="white"/>
<path d="M43.2584 36.2779C43.7928 35.533 44.2253 34.708 44.5086 33.8332C44.54 33.7414 44.4661 33.7541 44.4336 33.8225C44.0461 34.6419 43.6648 35.467 43.2523 36.2723C43.2481 36.2819 43.2521 36.2923 43.2597 36.2814L43.2584 36.2779Z" fill="white"/>
<path d="M42.3497 36.5543C42.551 36.2811 42.7251 35.9985 42.8877 35.6964C42.9693 35.5413 43.0462 35.384 43.1183 35.2246C43.1842 35.0795 43.27 34.9148 43.293 34.7505C43.2995 34.6962 43.2605 34.7073 43.2378 34.74C43.1467 34.8709 43.0875 35.0333 43.0203 35.1749C42.951 35.3213 42.8817 35.4676 42.809 35.6153C42.6594 35.9203 42.5016 36.2245 42.339 36.5266C42.3314 36.5375 42.3298 36.574 42.3484 36.5508L42.3497 36.5543Z" fill="white"/>
<path d="M41.0117 36.9247C41.3305 36.4466 41.5915 35.9311 41.8539 35.4191C42.1225 34.8927 42.3959 34.3684 42.6182 33.8241C42.6327 33.7906 42.6102 33.7833 42.5943 33.8134C42.3251 34.3281 42.0811 34.8569 41.8119 35.3716C41.5427 35.8863 41.2544 36.3924 41.0042 36.9157C41.0001 36.9253 41.0054 36.9391 41.0151 36.9234L41.0117 36.9247Z" fill="white"/>
<path d="M40.2594 36.9735C40.5475 36.3957 40.8492 35.8326 41.1134 35.2441C41.2431 34.9588 41.368 34.6713 41.4895 34.3852C41.6131 34.0943 41.7456 33.7959 41.831 33.4879C41.8527 33.4118 41.7939 33.4226 41.7676 33.4766C41.4762 34.0358 41.2712 34.6451 41.0193 35.2248C40.7674 35.8045 40.5291 36.3989 40.2581 36.97L40.2594 36.9735Z" fill="white"/>
<path d="M33.2812 39.3219C33.7435 38.5332 34.2072 37.7479 34.6348 36.9407C34.8493 36.5389 35.059 36.1349 35.2687 35.7309C35.4813 35.3139 35.7109 34.8903 35.884 34.4527C35.9006 34.4143 35.8818 34.3658 35.8487 34.4225C35.6248 34.8001 35.4362 35.2078 35.2328 35.5975C35.0175 36.0075 34.8084 36.4232 34.5884 36.8312C34.1525 37.6575 33.7213 38.486 33.2663 39.3037C33.2566 39.3194 33.2639 39.3485 33.2778 39.3232L33.2812 39.3219Z" fill="white"/>
<path d="M30.8877 40.4722C31.2609 39.9212 31.6151 39.3617 31.9619 38.793C32.136 38.5104 32.3066 38.2292 32.4806 37.9466C32.5677 37.8053 32.6533 37.6606 32.7356 37.5171C32.8179 37.3737 32.9178 37.2354 32.981 37.0834C32.9998 37.0403 32.9963 36.95 32.9357 37.0172C32.838 37.1308 32.7626 37.2716 32.6831 37.402C32.5948 37.5398 32.5077 37.6811 32.4207 37.8224C32.2425 38.1146 32.0677 38.4054 31.8916 38.6928C31.5406 39.271 31.1972 39.8583 30.8714 40.4506C30.8597 40.4711 30.8649 40.505 30.8877 40.4722Z" fill="white"/>
<path d="M29.1525 41.0649C29.513 40.4909 29.9646 39.9693 30.2972 39.3743C30.3069 39.3586 30.3086 39.3022 30.2824 39.3362C30.0758 39.5956 29.8955 39.8925 29.7166 40.173C29.5282 40.4691 29.3519 40.7765 29.1512 41.0614C29.1512 41.0614 29.1539 41.0683 29.1525 41.0649Z" fill="white"/>
<path d="M25.2877 43.4187C25.3205 43.2187 25.4614 43.0844 25.584 42.9333C25.677 42.8176 25.7687 42.6984 25.8555 42.5771C26.0418 42.3057 26.2124 42.0245 26.3722 41.7355C26.5244 41.4574 26.6704 41.1737 26.8083 40.8892C26.8776 40.7428 26.9455 40.5929 27.0114 40.4479C27.0773 40.3028 27.1548 40.1573 27.1968 40.0015C27.2165 39.9302 27.1675 39.9053 27.124 39.966C27.033 40.0969 26.9759 40.2545 26.9052 40.3974C26.8263 40.5595 26.7473 40.7215 26.6717 40.8823C26.5159 41.2017 26.36 41.521 26.1851 41.8319C26.0177 42.1318 25.8368 42.417 25.6478 42.7014C25.4987 42.9265 25.2902 43.1507 25.2746 43.4357C25.2731 43.4522 25.2883 43.4304 25.2904 43.4256L25.2877 43.4187Z" fill="white"/>
<path d="M22.0143 44.8381C22.3083 44.1943 22.6588 43.5844 22.978 42.9547C22.9897 42.9342 22.9769 42.9113 22.9596 42.9379C22.5602 43.5229 22.2689 44.1737 22 44.8317C21.9917 44.8508 22.0094 44.8559 22.0143 44.8381Z" fill="white"/>
<path d="M19.9972 45.9742C20.3689 45.4596 20.7337 44.9478 21.0714 44.4065C21.4049 43.8749 21.7338 43.3212 21.9823 42.7428C21.9969 42.7093 21.9787 42.6725 21.9517 42.7148C21.606 43.2352 21.3038 43.7866 20.9832 44.3212C20.655 44.8667 20.3296 45.4191 19.9831 45.9478C19.9713 45.9683 19.98 46.0008 20.0007 45.9728L19.9972 45.9742Z" fill="white"/>
<path d="M50.3694 29.1203C50.6257 28.3995 51.0443 27.7114 51.6723 27.2689C52.235 26.8716 52.9647 26.7323 53.6347 26.927C53.9939 27.0309 54.3368 27.2248 54.6089 27.49C54.674 27.5564 54.7758 27.3416 54.738 27.2846C54.3183 26.6383 53.5098 26.4216 52.7831 26.5278C51.9661 26.645 51.3061 27.1876 50.8541 27.8608C50.5926 28.2529 50.4168 28.6836 50.3099 29.1394C50.2958 29.2046 50.3569 29.1491 50.3681 29.1169L50.3694 29.1203Z" fill="white"/>
</g>
<defs>
<clipPath id="clip0_340_518">
<rect width="50" height="34.7984" fill="white" transform="translate(0.305908 18.8064) rotate(-21.1758)"/>
</clipPath>
</defs>
</svg>
