<svg width="92" height="33" viewBox="0 0 92 33" fill="none" xmlns="http://www.w3.org/2000/svg">
<mask id="path-1-inside-1_340_926" fill="white">
<path d="M0.75 0H91.75V33H0.75V0Z"/>
</mask>
<path d="M0.75 0V1H91.75V0V-1H0.75V0ZM91.75 33V32H0.75V33V34H91.75V33Z" fill="#CE2B37" mask="url(#path-1-inside-1_340_926)"/>
<circle cx="3.25" cy="16.5" r="1.5" fill="#CE2B37"/>
<path d="M20.866 10.598L20.47 12.056H17.05L15.52 23H13.828L15.358 12.056H11.866L12.082 10.598H20.866ZM26.9065 10.382C29.6065 10.382 31.3345 12.146 31.3345 15.422C31.3345 18.698 29.7865 23.216 25.2145 23.216C22.5145 23.216 20.7685 21.47 20.7685 18.23C20.7685 15.062 22.3165 10.382 26.9065 10.382ZM26.8345 11.786C23.4685 11.786 22.5325 15.746 22.5325 18.284C22.5325 20.84 23.6125 21.812 25.2685 21.812C28.6705 21.812 29.5705 17.816 29.5705 15.296C29.5705 12.812 28.5625 11.786 26.8345 11.786ZM45.0813 10.598L44.3613 23H42.7233L43.0833 17.348C43.1913 15.404 43.3353 13.496 43.4613 12.362L39.5373 21.596H37.9173L36.4233 12.38C36.2613 13.748 35.8653 15.764 35.4693 17.582L34.3173 23H32.6973L35.4693 10.598H37.6113L39.0153 19.58L42.6873 10.598H45.0813ZM54.1976 23L53.7116 19.886H49.0496L47.6816 23H45.9356L51.6236 10.598H53.7656L55.9436 23H54.1976ZM49.6436 18.5H53.4956L52.4876 12.02L49.6436 18.5ZM66.304 10.598L65.908 12.056H62.488L60.958 23H59.266L60.796 12.056H57.304L57.52 10.598H66.304ZM72.3446 10.382C75.0446 10.382 76.7726 12.146 76.7726 15.422C76.7726 18.698 75.2246 23.216 70.6526 23.216C67.9526 23.216 66.2066 21.47 66.2066 18.23C66.2066 15.062 67.7546 10.382 72.3446 10.382ZM72.2726 11.786C68.9066 11.786 67.9706 15.746 67.9706 18.284C67.9706 20.84 69.0506 21.812 70.7066 21.812C74.1086 21.812 75.0086 17.816 75.0086 15.296C75.0086 12.812 74.0006 11.786 72.2726 11.786Z" fill="#333333"/>
<circle cx="85.25" cy="16.5" r="1.5" fill="#CE2B37"/>
</svg>
