<svg width="89" height="32" viewBox="0 0 89 32" fill="none" xmlns="http://www.w3.org/2000/svg">
<mask id="path-1-inside-1_340_972" fill="white">
<path d="M0.75 0H88.75V32H0.75V0Z"/>
</mask>
<path d="M0.75 0V1H88.75V0V-1H0.75V0ZM88.75 32V31H0.75V32V33H88.75V32Z" fill="#C4C4C4" mask="url(#path-1-inside-1_340_972)"/>
<circle cx="3.25" cy="16" r="1.5" fill="#C4C4C4"/>
<path d="M17.842 10.382C19.282 10.382 20.308 10.85 21.172 11.66L20.2 12.614C19.462 12.038 18.76 11.786 17.914 11.786C14.692 11.786 13.63 15.53 13.63 18.32C13.63 20.804 14.782 21.776 16.366 21.776C17.572 21.776 18.4 21.254 19.156 20.714L19.912 21.866C19.102 22.55 17.878 23.216 16.258 23.216C13.612 23.216 11.848 21.452 11.848 18.176C11.848 14.864 13.54 10.382 17.842 10.382ZM23.9024 23H22.2104L23.9564 10.598H25.6484L24.9104 15.782H30.0944L30.8324 10.598H32.5244L30.7784 23H29.0864L29.8964 17.186H24.7124L23.9024 23ZM43.0873 10.598L42.7093 11.966H37.9393L37.3633 16.016H41.5033L41.3233 17.384H37.1833L36.5893 21.632H41.6833L41.4853 23H34.6993L36.4453 10.598H43.0873ZM52.9746 10.598L52.5966 11.966H47.8266L47.2506 16.016H51.3906L51.2106 17.384H47.0706L46.4766 21.632H51.5706L51.3726 23H44.5866L46.3326 10.598H52.9746ZM59.0142 10.382C60.6342 10.382 61.7502 10.922 62.6682 11.876L61.6062 12.866C60.8142 12.074 60.0042 11.786 59.0142 11.786C57.6102 11.786 56.4762 12.506 56.4762 13.802C56.4762 14.738 56.9802 15.224 58.7982 15.836C60.5262 16.376 62.0382 17.114 62.0382 19.238C62.0382 21.146 60.5802 23.216 57.1782 23.216C55.3602 23.216 54.0462 22.568 53.1642 21.56L54.2442 20.552C54.9822 21.362 55.9002 21.812 57.2142 21.812C59.0502 21.812 60.2742 20.858 60.2742 19.328C60.2742 18.248 59.6982 17.762 57.9882 17.168C55.8822 16.43 54.7482 15.656 54.7482 13.892C54.7482 12.254 56.2242 10.382 59.0142 10.382ZM72.7493 10.598L72.3713 11.966H67.6013L67.0253 16.016H71.1653L70.9853 17.384H66.8453L66.2513 21.632H71.3453L71.1473 23H64.3613L66.1073 10.598H72.7493Z" fill="#333333"/>
<circle cx="86.25" cy="16" r="1.5" fill="#C4C4C4"/>
</svg>
