<svg width="127" height="33" viewBox="0 0 127 33" fill="none" xmlns="http://www.w3.org/2000/svg">
<mask id="path-1-inside-1_340_896" fill="white">
<path d="M0.75 0H126.75V33H0.75V0Z"/>
</mask>
<path d="M0.75 0V1H126.75V0V-1H0.75V0ZM126.75 33V32H0.75V33V34H126.75V33Z" fill="#009246" mask="url(#path-1-inside-1_340_896)"/>
<circle cx="3.25" cy="16.5" r="1.5" fill="#009246"/>
<path d="M21.046 13.676C21.046 14.516 20.794 15.284 20.29 15.98C19.798 16.676 19.006 17.18 17.914 17.492L20.416 23H18.544L16.258 17.744H14.296L13.558 23H11.866L13.612 10.598H16.798C19.63 10.598 21.046 11.624 21.046 13.676ZM14.476 16.43H16.294C17.35 16.43 18.106 16.16 18.562 15.62C19.03 15.08 19.264 14.438 19.264 13.694C19.264 13.058 19.06 12.608 18.652 12.344C18.244 12.068 17.596 11.93 16.708 11.93H15.106L14.476 16.43ZM31.3894 10.598L31.0114 11.966H26.2414L25.6654 16.016H29.8054L29.6254 17.384H25.4854L24.8914 21.632H29.9854L29.7874 23H23.0014L24.7474 10.598H31.3894ZM38.6538 10.382C39.3498 10.382 39.9678 10.49 40.5078 10.706C41.0478 10.922 41.5398 11.24 41.9838 11.66L41.0118 12.614C40.6398 12.326 40.2678 12.116 39.8958 11.984C39.5358 11.852 39.1458 11.786 38.7258 11.786C37.7178 11.786 36.8898 12.122 36.2418 12.794C35.6058 13.454 35.1438 14.282 34.8558 15.278C34.5798 16.274 34.4418 17.288 34.4418 18.32C34.4418 19.508 34.6878 20.384 35.1798 20.948C35.6718 21.5 36.3378 21.776 37.1778 21.776C37.7178 21.776 38.1978 21.686 38.6178 21.506C39.0378 21.314 39.4878 21.05 39.9678 20.714L40.7238 21.866C39.6558 22.766 38.4378 23.216 37.0698 23.216C35.7138 23.216 34.6398 22.778 33.8478 21.902C33.0558 21.026 32.6598 19.784 32.6598 18.176C32.6598 16.976 32.8698 15.776 33.2898 14.576C33.7218 13.376 34.3878 12.38 35.2878 11.588C36.1878 10.784 37.3098 10.382 38.6538 10.382ZM48.7906 10.382C50.1586 10.382 51.2386 10.82 52.0306 11.696C52.8226 12.572 53.2186 13.814 53.2186 15.422C53.2186 16.634 53.0086 17.84 52.5886 19.04C52.1806 20.228 51.5206 21.224 50.6086 22.028C49.6966 22.82 48.5266 23.216 47.0986 23.216C45.7306 23.216 44.6446 22.784 43.8406 21.92C43.0486 21.056 42.6526 19.826 42.6526 18.23C42.6526 17.042 42.8566 15.848 43.2646 14.648C43.6846 13.448 44.3506 12.44 45.2626 11.624C46.1866 10.796 47.3626 10.382 48.7906 10.382ZM48.7186 11.786C47.6746 11.786 46.8286 12.128 46.1806 12.812C45.5446 13.496 45.0886 14.336 44.8126 15.332C44.5486 16.316 44.4166 17.3 44.4166 18.284C44.4166 20.636 45.3286 21.812 47.1526 21.812C48.2086 21.812 49.0546 21.47 49.6906 20.786C50.3386 20.09 50.7946 19.25 51.0586 18.266C51.3226 17.27 51.4546 16.28 51.4546 15.296C51.4546 12.956 50.5426 11.786 48.7186 11.786ZM66.2454 23H64.6074L64.9674 17.348C65.0874 15.236 65.2134 13.574 65.3454 12.362L61.4214 21.596H59.8014L58.3074 12.38C58.1634 13.58 57.8454 15.314 57.3534 17.582L56.2014 23H54.5814L57.3534 10.598H59.4954L60.8994 19.58L64.5714 10.598H66.9654L66.2454 23ZM80.5097 23H78.8717L79.2317 17.348C79.3517 15.236 79.4777 13.574 79.6097 12.362L75.6857 21.596H74.0657L72.5717 12.38C72.4277 13.58 72.1097 15.314 71.6177 17.582L70.4657 23H68.8457L71.6177 10.598H73.7597L75.1637 19.58L78.8357 10.598H81.2297L80.5097 23ZM92.164 10.598L91.786 11.966H87.016L86.44 16.016H90.58L90.4 17.384H86.26L85.666 21.632H90.76L90.562 23H83.776L85.522 10.598H92.164ZM102.285 23H100.071L96.5253 12.074C96.5133 13.502 96.3573 15.266 96.0573 17.366L95.2653 23H93.6633L95.4093 10.598H97.6413L101.205 21.542C101.205 20.726 101.223 20.012 101.259 19.4C101.307 18.776 101.379 18.08 101.475 17.312L102.429 10.598H104.031L102.285 23ZM110.489 10.598C112.133 10.598 113.447 10.94 114.431 11.624C115.415 12.296 115.907 13.52 115.907 15.296C115.907 16.7 115.679 17.984 115.223 19.148C114.767 20.312 114.035 21.248 113.027 21.956C112.031 22.652 110.753 23 109.193 23H106.205L107.951 10.598H110.489ZM109.445 11.966L108.095 21.65H109.445C110.573 21.65 111.491 21.338 112.199 20.714C112.907 20.09 113.411 19.298 113.711 18.338C114.023 17.378 114.179 16.352 114.179 15.26C114.179 14.348 114.023 13.652 113.711 13.172C113.399 12.692 112.991 12.374 112.487 12.218C111.995 12.05 111.413 11.966 110.741 11.966H109.445Z" fill="#333333"/>
<circle cx="124.25" cy="16.5" r="1.5" fill="#009246"/>
</svg>
